<svg width="110" height="34" viewBox="0 0 110 34" fill="none" xmlns="http://www.w3.org/2000/svg">
<path d="M4.51552 10.7657L14.4674 20.7536C15.2239 21.5128 15.4501 22.6545 15.0408 23.6464C14.6314 24.6383 13.667 25.2849 12.5971 25.2849H5.29033V31.1912C5.29033 32.6572 4.10604 33.8457 2.64541 33.8457C1.18478 33.8457 0.000497629 32.6571 0.000497629 31.1912V22.6302C0.000497629 21.1642 1.18478 19.9757 2.64541 19.9757H6.21184L0.775545 14.5198C-0.257659 13.4832 -0.257659 11.8025 0.775545 10.7658C1.80841 9.72923 3.48261 9.72911 4.51552 10.7657ZM23.9704 0.000363125C25.4313 0.000363125 26.6156 1.18893 26.6156 2.65483C26.6156 4.12074 25.4313 5.3093 23.9707 5.3093H9.03103L14.4673 10.7652C15.5005 11.8018 15.5005 13.4825 14.4673 14.5192C13.9509 15.0375 13.2741 15.2966 12.597 15.2966C11.9199 15.2966 11.2431 15.0375 10.7266 14.5192L0.774702 4.53133C0.0182267 3.77212 -0.207916 2.63041 0.201396 1.63849C0.610707 0.646573 1.57516 0 2.64505 0L23.9704 0.000363125ZM31.2909 8.9598C32.7516 8.9598 33.9358 10.1484 33.9358 11.6143V31.1916C33.9358 32.6576 32.7515 33.846 31.2909 33.846C29.8302 33.846 28.6459 32.6575 28.6459 31.1916V11.6143C28.6459 10.1483 29.8302 8.9598 31.2909 8.9598ZM28.8476 3.6702C28.7815 3.51093 28.7319 3.34166 28.6988 3.17243C28.6624 3.0032 28.6459 2.82731 28.6459 2.65478C28.6459 2.48225 28.6624 2.30637 28.6988 2.13714C28.7319 1.96791 28.7814 1.79868 28.8476 1.63941C28.9137 1.48014 28.9963 1.32419 29.0922 1.18149C29.1881 1.0355 29.2972 0.899461 29.4195 0.776698C29.5418 0.653935 29.6774 0.544432 29.8228 0.448202C29.965 0.351974 30.1204 0.269013 30.2791 0.202675C30.4378 0.136338 30.6064 0.0865656 30.7751 0.0533678C31.6347 -0.122521 32.5472 0.162868 33.1622 0.776747C33.2813 0.89951 33.3937 1.03554 33.4895 1.18154C33.5854 1.32424 33.6681 1.48019 33.7342 1.63946C33.8003 1.79873 33.8499 1.96796 33.883 2.13719C33.9193 2.30641 33.9358 2.4823 33.9358 2.65483C33.9358 2.82736 33.9193 3.00325 33.883 3.17248C33.8499 3.3417 33.8003 3.51093 33.7342 3.6702C33.6681 3.82947 33.5854 3.98542 33.4895 4.12812C33.3937 4.27412 33.2813 4.41015 33.1622 4.53291C33.0399 4.65568 32.9044 4.76518 32.7589 4.86141C32.6167 4.95764 32.4613 5.0406 32.3026 5.10694C32.1439 5.17327 31.9753 5.22305 31.8067 5.25625C31.6381 5.29274 31.4628 5.30932 31.2909 5.30932C31.119 5.30932 30.9437 5.29275 30.7751 5.25625C30.6065 5.22305 30.4379 5.17328 30.2792 5.10694C30.1205 5.04059 29.9651 4.95763 29.8229 4.86141C29.6774 4.76518 29.5419 4.65568 29.4196 4.53291C29.2973 4.41015 29.1881 4.27412 29.0923 4.12812C28.9964 3.98542 28.9137 3.82947 28.8476 3.6702ZM48.5948 28.5371C50.0555 28.5371 51.2399 29.7257 51.2399 31.1917C51.2399 32.6577 50.0556 33.8462 48.5949 33.8462C41.6493 33.8462 35.9979 28.1746 35.9979 21.2036V2.65495C35.9979 1.18895 37.1822 0.000484166 38.6428 0.000484166C40.1034 0.000484166 41.2877 1.18905 41.2877 2.65495V8.96681H48.5945C50.0552 8.96681 51.2394 10.1554 51.2394 11.6213C51.2394 13.0872 50.0551 14.2757 48.5945 14.2757H41.2877V21.2035C41.2877 25.2471 44.5657 28.5371 48.5948 28.5371ZM65.8711 28.5371C67.3318 28.5371 68.5161 29.7257 68.5161 31.1917C68.5161 32.6577 67.3318 33.8462 65.8712 33.8462C58.9255 33.8462 53.2741 28.1746 53.2741 21.2036V2.65495C53.2741 1.18895 54.4584 0.000484166 55.919 0.000484166C57.3797 0.000484166 58.564 1.18905 58.564 2.65495V8.96681H65.8707C67.3315 8.96681 68.5156 10.1554 68.5156 11.6213C68.5156 13.0872 67.3314 14.2757 65.8707 14.2757H58.564V21.2035C58.564 25.2471 61.8419 28.5371 65.8711 28.5371ZM80.5398 8.9598C87.3766 8.9598 92.9381 14.5414 92.9381 21.4029C92.9381 22.8689 91.7538 24.0574 90.2932 24.0574H73.9419C74.9933 26.6804 77.5546 28.537 80.5403 28.537C82.439 28.537 84.2241 27.795 85.5666 26.4475C86.5998 25.4109 88.2741 25.4112 89.3073 26.4475C90.3405 27.4844 90.3401 29.1651 89.3073 30.2017C86.9651 32.5519 83.8517 33.846 80.54 33.846C73.7032 33.846 68.1417 28.2644 68.1417 21.4029C68.1417 14.5414 73.703 8.9598 80.5398 8.9598ZM73.9415 18.7484H87.1383C86.087 16.1254 83.5257 14.2689 80.54 14.2689C77.5544 14.2689 74.9927 16.1254 73.9415 18.7484ZM107.355 8.9598C108.816 8.9598 110 10.1484 110 11.6143C110 13.0802 108.816 14.2687 107.355 14.2687C103.436 14.2687 100.247 17.4691 100.247 21.4029V31.1916C100.247 32.6576 99.0623 33.846 97.6017 33.846C96.141 33.846 94.9567 32.6575 94.9567 31.1916V11.6143C94.9567 10.1483 96.141 8.9598 97.6017 8.9598C98.9351 8.9598 100.035 9.95094 100.217 11.2383C102.237 9.80521 104.699 8.9598 107.355 8.9598Z" fill="white"/>
</svg>
