<svg width="407" height="417" viewBox="0 0 407 417" fill="none" xmlns="http://www.w3.org/2000/svg">
<path d="M244.11 62.8205C244.717 62.8205 245.258 62.7181 245.734 62.5132C246.217 62.3084 246.623 62.0231 246.952 61.6573C247.288 61.2915 247.544 60.8526 247.72 60.3405C247.895 59.821 247.983 59.2467 247.983 58.6176V49.0924H250.54V58.6176C250.54 59.5467 250.39 60.4063 250.09 61.1964C249.798 61.9865 249.373 62.6705 248.817 63.2485C248.261 63.8191 247.585 64.269 246.787 64.5982C245.997 64.9201 245.105 65.0811 244.11 65.0811C243.115 65.0811 242.218 64.9201 241.421 64.5982C240.631 64.269 239.958 63.8191 239.402 63.2485C238.846 62.6705 238.418 61.9865 238.118 61.1964C237.825 60.4063 237.679 59.5467 237.679 58.6176V49.0924H240.247V58.6066C240.247 59.2358 240.335 59.8101 240.51 60.3295C240.686 60.8416 240.938 61.2842 241.267 61.6573C241.597 62.0231 241.999 62.3084 242.474 62.5132C242.957 62.7181 243.502 62.8205 244.11 62.8205ZM255.679 62.0853C256.008 62.5096 256.366 62.8095 256.754 62.9851C257.149 63.1534 257.584 63.2375 258.06 63.2375C258.982 63.2375 259.699 62.901 260.211 62.2279C260.73 61.5549 260.99 60.5526 260.99 59.2211C260.99 58.5335 260.931 57.9482 260.814 57.4653C260.697 56.9752 260.529 56.5765 260.31 56.2692C260.09 55.962 259.823 55.7388 259.509 55.5998C259.194 55.4608 258.839 55.3913 258.444 55.3913C257.844 55.3913 257.325 55.523 256.886 55.7864C256.454 56.0424 256.052 56.4119 255.679 56.8947V62.0853ZM255.558 55.3255C256.026 54.7768 256.557 54.3342 257.149 53.9977C257.749 53.6611 258.444 53.4929 259.234 53.4929C259.863 53.4929 260.434 53.6209 260.946 53.877C261.458 54.1257 261.897 54.4915 262.263 54.9743C262.629 55.4572 262.91 56.0571 263.108 56.774C263.313 57.4836 263.415 58.2993 263.415 59.2211C263.415 60.0478 263.302 60.8196 263.075 61.5366C262.856 62.2462 262.537 62.8644 262.12 63.3911C261.703 63.9106 261.198 64.3202 260.606 64.6202C260.013 64.9128 259.344 65.0591 258.598 65.0591C257.939 65.0591 257.38 64.9531 256.919 64.7409C256.465 64.5287 256.052 64.2361 255.679 63.863V68.6146H253.319V53.7014H254.746C255.068 53.7014 255.273 53.8513 255.36 54.1513L255.558 55.3255ZM268.067 62.0853C268.396 62.5096 268.755 62.8095 269.142 62.9851C269.537 63.1534 269.973 63.2375 270.448 63.2375C271.37 63.2375 272.087 62.901 272.599 62.2279C273.119 61.5549 273.378 60.5526 273.378 59.2211C273.378 58.5335 273.32 57.9482 273.203 57.4653C273.086 56.9752 272.917 56.5765 272.698 56.2692C272.478 55.962 272.211 55.7388 271.897 55.5998C271.582 55.4608 271.227 55.3913 270.832 55.3913C270.232 55.3913 269.713 55.523 269.274 55.7864C268.842 56.0424 268.44 56.4119 268.067 56.8947V62.0853ZM267.946 55.3255C268.414 54.7768 268.945 54.3342 269.537 53.9977C270.137 53.6611 270.832 53.4929 271.622 53.4929C272.252 53.4929 272.822 53.6209 273.334 53.877C273.846 54.1257 274.285 54.4915 274.651 54.9743C275.017 55.4572 275.299 56.0571 275.496 56.774C275.701 57.4836 275.803 58.2993 275.803 59.2211C275.803 60.0478 275.69 60.8196 275.463 61.5366C275.244 62.2462 274.926 62.8644 274.509 63.3911C274.092 63.9106 273.587 64.3202 272.994 64.6202C272.402 64.9128 271.732 65.0591 270.986 65.0591C270.328 65.0591 269.768 64.9531 269.307 64.7409C268.853 64.5287 268.44 64.2361 268.067 63.863V68.6146H265.708V53.7014H267.134C267.456 53.7014 267.661 53.8513 267.749 54.1513L267.946 55.3255ZM285.437 58.036C285.437 57.6409 285.379 57.2751 285.262 56.9386C285.152 56.5948 284.987 56.2985 284.768 56.0497C284.548 55.7937 284.274 55.5962 283.945 55.4572C283.623 55.3108 283.25 55.2377 282.826 55.2377C281.97 55.2377 281.297 55.4828 280.806 55.9729C280.316 56.4631 280.005 57.1508 279.874 58.036H285.437ZM279.808 59.4845C279.837 60.121 279.936 60.6733 280.104 61.1415C280.272 61.6024 280.495 61.9865 280.773 62.2938C281.059 62.601 281.395 62.8315 281.783 62.9851C282.178 63.1314 282.617 63.2046 283.1 63.2046C283.561 63.2046 283.96 63.1534 284.296 63.051C284.633 62.9412 284.925 62.8242 285.174 62.6998C285.423 62.5681 285.635 62.4511 285.81 62.3486C285.986 62.2389 286.147 62.184 286.293 62.184C286.483 62.184 286.63 62.2572 286.732 62.4035L287.402 63.2704C287.124 63.5996 286.809 63.8776 286.458 64.1044C286.107 64.3312 285.734 64.5178 285.339 64.6641C284.943 64.8031 284.537 64.9018 284.12 64.9604C283.703 65.0262 283.297 65.0591 282.902 65.0591C282.127 65.0591 281.406 64.9311 280.741 64.6751C280.082 64.4117 279.508 64.0276 279.018 63.5228C278.535 63.018 278.154 62.3925 277.876 61.6463C277.606 60.9001 277.47 60.0405 277.47 59.0675C277.47 58.292 277.591 57.5678 277.833 56.8947C278.081 56.2217 278.432 55.6364 278.886 55.1389C279.347 54.6415 279.903 54.2501 280.554 53.9647C281.212 53.6721 281.955 53.5258 282.782 53.5258C283.469 53.5258 284.106 53.6392 284.691 53.866C285.276 54.0855 285.781 54.411 286.205 54.8426C286.63 55.2743 286.959 55.8047 287.193 56.4338C287.435 57.0557 287.555 57.7653 287.555 58.5627C287.555 58.9285 287.515 59.1736 287.435 59.298C287.354 59.4223 287.208 59.4845 286.996 59.4845H279.808ZM291.983 55.7754C292.334 55.0658 292.759 54.5098 293.256 54.1074C293.754 53.6977 294.35 53.4929 295.045 53.4929C295.286 53.4929 295.513 53.5221 295.725 53.5807C295.937 53.6319 296.128 53.7123 296.296 53.8221L296.131 55.5998C296.102 55.7242 296.054 55.812 295.989 55.8632C295.93 55.9071 295.85 55.929 295.747 55.929C295.637 55.929 295.48 55.9107 295.275 55.8742C295.07 55.8303 294.855 55.8083 294.628 55.8083C294.299 55.8083 294.006 55.8559 293.75 55.951C293.501 56.0461 293.274 56.1851 293.07 56.368C292.872 56.5509 292.696 56.774 292.543 57.0374C292.389 57.3007 292.246 57.6007 292.115 57.9372V64.8945H289.755V53.7014H291.127C291.376 53.7014 291.548 53.7489 291.643 53.844C291.738 53.9318 291.804 54.0891 291.84 54.3159L291.983 55.7754ZM305.21 62.0853C305.54 62.5096 305.898 62.8095 306.286 62.9851C306.681 63.1534 307.109 63.2375 307.57 63.2375C308.499 63.2375 309.223 62.901 309.742 62.2279C310.262 61.5549 310.522 60.5124 310.522 59.1004C310.522 57.8128 310.295 56.8728 309.841 56.2802C309.395 55.6876 308.755 55.3913 307.921 55.3913C307.343 55.3913 306.838 55.523 306.406 55.7864C305.982 56.0424 305.583 56.4119 305.21 56.8947V62.0853ZM305.21 55.1828C305.671 54.678 306.187 54.2757 306.758 53.9757C307.328 53.6758 307.979 53.5258 308.711 53.5258C309.362 53.5258 309.947 53.6538 310.467 53.9099C310.993 54.1586 311.44 54.5207 311.806 54.9963C312.171 55.4718 312.453 56.0497 312.651 56.7301C312.848 57.4032 312.947 58.164 312.947 59.0126C312.947 59.9198 312.833 60.7465 312.607 61.4927C312.387 62.2316 312.069 62.8681 311.652 63.4021C311.235 63.9288 310.73 64.3385 310.138 64.6312C309.545 64.9165 308.883 65.0591 308.151 65.0591C307.793 65.0591 307.467 65.0226 307.175 64.9494C306.882 64.8836 306.611 64.7848 306.363 64.6531C306.114 64.5214 305.883 64.3641 305.671 64.1812C305.466 63.9983 305.269 63.7898 305.079 63.5557L304.98 64.4227C304.943 64.5909 304.877 64.7116 304.782 64.7848C304.687 64.858 304.556 64.8945 304.387 64.8945H302.851V48.6535H305.21V55.1828ZM320.079 53.5258C320.905 53.5258 321.652 53.6611 322.317 53.9318C322.99 54.2025 323.561 54.5866 324.029 55.0841C324.505 55.5815 324.871 56.1851 325.127 56.8947C325.383 57.6043 325.511 58.4018 325.511 59.287C325.511 60.1722 325.383 60.9696 325.127 61.6792C324.871 62.3889 324.505 62.9961 324.029 63.5009C323.561 63.9983 322.99 64.3824 322.317 64.6531C321.652 64.9238 320.905 65.0591 320.079 65.0591C319.245 65.0591 318.491 64.9238 317.818 64.6531C317.152 64.3824 316.582 63.9983 316.106 63.5009C315.631 62.9961 315.265 62.3889 315.009 61.6792C314.753 60.9696 314.625 60.1722 314.625 59.287C314.625 58.4018 314.753 57.6043 315.009 56.8947C315.265 56.1851 315.631 55.5815 316.106 55.0841C316.582 54.5866 317.152 54.2025 317.818 53.9318C318.491 53.6611 319.245 53.5258 320.079 53.5258ZM320.079 63.2156C321.088 63.2156 321.838 62.879 322.328 62.206C322.826 61.5256 323.074 60.5563 323.074 59.298C323.074 58.0396 322.826 57.0703 322.328 56.3899C321.838 55.7022 321.088 55.3584 320.079 55.3584C319.054 55.3584 318.294 55.7022 317.796 56.3899C317.299 57.0703 317.05 58.0396 317.05 59.298C317.05 60.5563 317.299 61.5256 317.796 62.206C318.294 62.879 319.054 63.2156 320.079 63.2156ZM334.921 56.4558C334.592 56.0315 334.23 55.7352 333.835 55.5669C333.44 55.3986 333.012 55.3145 332.551 55.3145C331.629 55.3145 330.909 55.6547 330.389 56.3351C329.87 57.0081 329.61 58.0067 329.61 59.3309C329.61 60.0186 329.669 60.6075 329.786 61.0976C329.903 61.5805 330.071 61.9755 330.291 62.2828C330.51 62.5901 330.777 62.8132 331.092 62.9522C331.406 63.0912 331.761 63.1607 332.156 63.1607C332.756 63.1607 333.272 63.0327 333.703 62.7766C334.142 62.5132 334.548 62.1438 334.921 61.6683V56.4558ZM337.281 48.6535V64.8945H335.854C335.54 64.8945 335.338 64.7446 335.251 64.4446L335.042 63.2265C334.574 63.7752 334.04 64.2178 333.44 64.5543C332.847 64.8909 332.156 65.0591 331.366 65.0591C330.737 65.0591 330.166 64.9348 329.654 64.686C329.142 64.43 328.703 64.0605 328.337 63.5777C327.971 63.0948 327.686 62.4986 327.481 61.789C327.284 61.072 327.185 60.2527 327.185 59.3309C327.185 58.4969 327.295 57.7251 327.514 57.0154C327.741 56.3058 328.063 55.6913 328.48 55.1718C328.897 54.6451 329.402 54.2354 329.994 53.9428C330.594 53.6428 331.264 53.4929 332.002 53.4929C332.661 53.4929 333.221 53.599 333.681 53.8111C334.142 54.016 334.556 54.3049 334.921 54.678V48.6535H337.281ZM350.097 53.7014L343.93 68.0769C343.849 68.2452 343.751 68.3768 343.634 68.472C343.524 68.5671 343.352 68.6146 343.118 68.6146H341.373L343.436 64.1373L338.871 53.7014H340.923C341.121 53.7014 341.271 53.7489 341.373 53.844C341.483 53.9318 341.563 54.0379 341.614 54.1623L344.281 60.516C344.347 60.6989 344.405 60.8818 344.457 61.0647C344.515 61.2403 344.57 61.4232 344.621 61.6134C344.68 61.4232 344.738 61.2366 344.797 61.0537C344.855 60.8708 344.921 60.688 344.994 60.5051L347.551 54.1623C347.602 54.0306 347.686 53.9208 347.804 53.8331C347.928 53.7453 348.063 53.7014 348.21 53.7014H350.097ZM356.43 57.2898H361.994V59.287H356.43V57.2898ZM374.56 63.1058V64.8945H365.946V63.1058H369.238V53.2076C369.238 52.8564 369.249 52.4979 369.271 52.1321L366.736 54.272C366.626 54.3598 366.513 54.4183 366.396 54.4476C366.286 54.4695 366.18 54.4695 366.078 54.4476C365.983 54.4256 365.895 54.3927 365.814 54.3488C365.741 54.2976 365.683 54.2427 365.639 54.1842L364.904 53.1527L369.666 49.0595H371.587V63.1058H374.56ZM387.292 63.1058V64.8945H378.677V63.1058H381.969V53.2076C381.969 52.8564 381.98 52.4979 382.002 52.1321L379.467 54.272C379.358 54.3598 379.244 54.4183 379.127 54.4476C379.017 54.4695 378.911 54.4695 378.809 54.4476C378.714 54.4256 378.626 54.3927 378.546 54.3488C378.472 54.2976 378.414 54.2427 378.37 54.1842L377.635 53.1527L382.397 49.0595H384.318V63.1058H387.292ZM396.808 52.9113C396.808 53.5185 396.709 54.0635 396.511 54.5463C396.321 55.0292 396.061 55.4425 395.732 55.7864C395.403 56.1229 395.022 56.3826 394.591 56.5655C394.159 56.7411 393.706 56.8289 393.23 56.8289C392.718 56.8289 392.242 56.7411 391.804 56.5655C391.372 56.3826 390.995 56.1229 390.673 55.7864C390.359 55.4425 390.11 55.0292 389.927 54.5463C389.744 54.0635 389.653 53.5185 389.653 52.9113C389.653 52.2894 389.744 51.7334 389.927 51.2433C390.11 50.7458 390.359 50.3288 390.673 49.9923C390.995 49.6484 391.372 49.3851 391.804 49.2022C392.242 49.0193 392.718 48.9278 393.23 48.9278C393.742 48.9278 394.214 49.0193 394.646 49.2022C395.085 49.3851 395.461 49.6484 395.776 49.9923C396.098 50.3288 396.35 50.7458 396.533 51.2433C396.716 51.7334 396.808 52.2894 396.808 52.9113ZM394.986 52.9113C394.986 52.465 394.938 52.0882 394.843 51.781C394.755 51.4664 394.631 51.214 394.47 51.0238C394.316 50.8263 394.13 50.6873 393.91 50.6068C393.698 50.519 393.472 50.4751 393.23 50.4751C392.981 50.4751 392.751 50.519 392.539 50.6068C392.327 50.6873 392.144 50.8263 391.99 51.0238C391.836 51.214 391.716 51.4664 391.628 51.781C391.54 52.0882 391.496 52.465 391.496 52.9113C391.496 53.3502 391.54 53.7197 391.628 54.0196C391.716 54.3196 391.836 54.5646 391.99 54.7548C392.144 54.9377 392.327 55.0694 392.539 55.1499C392.751 55.2304 392.981 55.2706 393.23 55.2706C393.472 55.2706 393.698 55.2304 393.91 55.1499C394.13 55.0694 394.316 54.9377 394.47 54.7548C394.631 54.5646 394.755 54.3196 394.843 54.0196C394.938 53.7197 394.986 53.3502 394.986 52.9113ZM402.229 49.4765C402.309 49.3741 402.404 49.2863 402.514 49.2131C402.631 49.1327 402.792 49.0924 402.997 49.0924H404.698L393.055 64.5324C392.974 64.6348 392.875 64.7226 392.758 64.7958C392.641 64.8616 392.499 64.8945 392.33 64.8945H390.574L402.229 49.4765ZM405.652 61.1745C405.652 61.7817 405.554 62.3267 405.356 62.8095C405.158 63.2924 404.895 63.7021 404.566 64.0386C404.237 64.3751 403.856 64.6348 403.425 64.8177C402.993 64.9933 402.539 65.0811 402.064 65.0811C401.552 65.0811 401.076 64.9933 400.637 64.8177C400.206 64.6348 399.829 64.3751 399.507 64.0386C399.192 63.7021 398.944 63.2924 398.761 62.8095C398.585 62.3267 398.497 61.7817 398.497 61.1745C398.497 60.5526 398.585 59.9966 398.761 59.5065C398.944 59.009 399.192 58.5883 399.507 58.2445C399.829 57.9006 400.206 57.6409 400.637 57.4653C401.076 57.2825 401.552 57.191 402.064 57.191C402.576 57.191 403.052 57.2825 403.49 57.4653C403.929 57.6409 404.306 57.9006 404.621 58.2445C404.943 58.5883 405.195 59.009 405.378 59.5065C405.561 59.9966 405.652 60.5526 405.652 61.1745ZM403.831 61.1745C403.831 60.7282 403.783 60.3514 403.688 60.0442C403.6 59.7296 403.476 59.4772 403.315 59.287C403.154 59.0895 402.964 58.9505 402.744 58.87C402.532 58.7822 402.305 58.7383 402.064 58.7383C401.822 58.7383 401.596 58.7822 401.384 58.87C401.171 58.9505 400.985 59.0895 400.824 59.287C400.67 59.4772 400.55 59.7296 400.462 60.0442C400.374 60.3514 400.33 60.7282 400.33 61.1745C400.33 61.6134 400.374 61.9828 400.462 62.2828C400.55 62.5827 400.67 62.8278 400.824 63.018C400.985 63.2009 401.171 63.3326 401.384 63.4131C401.596 63.4936 401.822 63.5338 402.064 63.5338C402.305 63.5338 402.532 63.4936 402.744 63.4131C402.964 63.3326 403.154 63.2009 403.315 63.018C403.476 62.8278 403.6 62.5827 403.688 62.2828C403.783 61.9828 403.831 61.6134 403.831 61.1745Z" fill="#222222"/>
<path d="M258.65 132.395L253.733 148.197H251.418L247.709 136.85C247.665 136.726 247.621 136.591 247.577 136.444C247.541 136.298 247.504 136.141 247.468 135.973C247.431 136.141 247.391 136.298 247.347 136.444C247.31 136.591 247.27 136.726 247.226 136.85L243.484 148.197H241.169L236.252 132.395H238.403C238.623 132.395 238.806 132.45 238.952 132.56C239.106 132.662 239.208 132.805 239.259 132.988L242.222 143.116C242.281 143.336 242.335 143.574 242.387 143.83C242.438 144.086 242.489 144.353 242.54 144.631C242.592 144.353 242.646 144.086 242.705 143.83C242.771 143.566 242.84 143.329 242.913 143.116L246.304 132.988C246.356 132.841 246.458 132.706 246.612 132.582C246.765 132.457 246.948 132.395 247.16 132.395H247.906C248.133 132.395 248.316 132.454 248.455 132.571C248.594 132.68 248.7 132.819 248.773 132.988L252.153 143.116C252.226 143.329 252.292 143.559 252.351 143.808C252.417 144.049 252.475 144.305 252.526 144.576C252.578 144.305 252.625 144.049 252.669 143.808C252.72 143.559 252.775 143.329 252.834 143.116L255.786 132.988C255.829 132.827 255.928 132.688 256.082 132.571C256.243 132.454 256.429 132.395 256.642 132.395H258.65ZM265.044 143.303C264.203 143.332 263.493 143.402 262.915 143.512C262.337 143.614 261.869 143.749 261.511 143.918C261.152 144.078 260.892 144.272 260.731 144.499C260.578 144.726 260.501 144.975 260.501 145.245C260.501 145.509 260.541 145.736 260.622 145.926C260.709 146.109 260.827 146.262 260.973 146.387C261.126 146.504 261.302 146.591 261.5 146.65C261.704 146.701 261.928 146.727 262.169 146.727C262.784 146.727 263.31 146.613 263.749 146.387C264.195 146.153 264.627 145.816 265.044 145.377V143.303ZM258.789 138.562C260.055 137.385 261.562 136.796 263.31 136.796C263.954 136.796 264.525 136.902 265.022 137.114C265.527 137.319 265.948 137.611 266.284 137.992C266.628 138.372 266.888 138.826 267.063 139.352C267.246 139.872 267.338 140.45 267.338 141.086V148.197H266.284C266.057 148.197 265.885 148.164 265.768 148.099C265.651 148.025 265.553 147.883 265.472 147.671L265.242 146.76C264.956 147.016 264.675 147.246 264.397 147.451C264.119 147.649 263.83 147.817 263.53 147.956C263.237 148.095 262.919 148.197 262.575 148.263C262.238 148.336 261.865 148.373 261.456 148.373C261.002 148.373 260.578 148.311 260.183 148.186C259.795 148.062 259.458 147.875 259.173 147.627C258.888 147.371 258.661 147.056 258.493 146.683C258.332 146.31 258.251 145.871 258.251 145.366C258.251 144.934 258.365 144.514 258.592 144.104C258.826 143.694 259.206 143.329 259.733 143.007C260.267 142.678 260.966 142.407 261.829 142.195C262.699 141.983 263.771 141.862 265.044 141.833V141.086C265.044 140.282 264.872 139.682 264.528 139.287C264.184 138.892 263.68 138.694 263.014 138.694C262.56 138.694 262.18 138.753 261.873 138.87C261.565 138.979 261.298 139.1 261.072 139.232C260.845 139.363 260.644 139.488 260.468 139.605C260.292 139.715 260.106 139.769 259.908 139.769C259.747 139.769 259.608 139.729 259.491 139.649C259.382 139.561 259.29 139.455 259.217 139.331L258.789 138.562ZM272.56 137.004V148.197H270.2V137.004H272.56ZM272.955 133.624C272.955 133.836 272.911 134.038 272.823 134.228C272.742 134.418 272.629 134.586 272.483 134.733C272.336 134.872 272.164 134.985 271.967 135.073C271.777 135.153 271.572 135.193 271.352 135.193C271.14 135.193 270.939 135.153 270.749 135.073C270.566 134.985 270.405 134.872 270.266 134.733C270.127 134.586 270.014 134.418 269.926 134.228C269.845 134.038 269.805 133.836 269.805 133.624C269.805 133.405 269.845 133.2 269.926 133.01C270.014 132.819 270.127 132.655 270.266 132.516C270.405 132.37 270.566 132.256 270.749 132.176C270.939 132.088 271.14 132.044 271.352 132.044C271.572 132.044 271.777 132.088 271.967 132.176C272.164 132.256 272.336 132.37 272.483 132.516C272.629 132.655 272.742 132.819 272.823 133.01C272.911 133.2 272.955 133.405 272.955 133.624ZM282.207 139.034C282.148 139.137 282.083 139.21 282.009 139.254C281.936 139.298 281.845 139.32 281.735 139.32C281.611 139.32 281.475 139.283 281.329 139.21C281.183 139.129 281.011 139.042 280.813 138.946C280.616 138.851 280.382 138.767 280.111 138.694C279.848 138.614 279.537 138.573 279.178 138.573C278.886 138.573 278.619 138.61 278.377 138.683C278.143 138.749 277.942 138.848 277.774 138.979C277.613 139.104 277.488 139.254 277.4 139.429C277.313 139.598 277.269 139.78 277.269 139.978C277.269 140.241 277.349 140.461 277.51 140.636C277.671 140.812 277.883 140.966 278.147 141.097C278.41 141.222 278.71 141.335 279.047 141.437C279.383 141.54 279.727 141.65 280.078 141.767C280.429 141.884 280.773 142.019 281.11 142.173C281.446 142.326 281.746 142.517 282.009 142.743C282.273 142.963 282.485 143.234 282.646 143.555C282.807 143.87 282.887 144.254 282.887 144.708C282.887 145.234 282.792 145.721 282.602 146.167C282.412 146.613 282.134 147.001 281.768 147.33C281.402 147.66 280.945 147.916 280.396 148.099C279.855 148.281 279.233 148.373 278.531 148.373C278.143 148.373 277.766 148.336 277.4 148.263C277.042 148.197 276.698 148.106 276.369 147.989C276.047 147.864 275.743 147.718 275.458 147.55C275.18 147.382 274.931 147.199 274.712 147.001L275.261 146.101C275.326 145.992 275.407 145.907 275.502 145.849C275.604 145.783 275.729 145.75 275.875 145.75C276.029 145.75 276.179 145.801 276.325 145.904C276.479 145.999 276.654 146.105 276.852 146.222C277.057 146.339 277.302 146.449 277.587 146.551C277.872 146.646 278.227 146.694 278.651 146.694C279.003 146.694 279.306 146.654 279.562 146.573C279.818 146.485 280.03 146.368 280.199 146.222C280.367 146.076 280.491 145.911 280.572 145.728C280.652 145.538 280.693 145.337 280.693 145.125C280.693 144.839 280.612 144.605 280.451 144.422C280.29 144.239 280.074 144.082 279.804 143.95C279.54 143.819 279.237 143.702 278.893 143.599C278.556 143.497 278.213 143.387 277.861 143.27C277.51 143.153 277.163 143.018 276.819 142.864C276.482 142.71 276.179 142.517 275.908 142.282C275.645 142.041 275.433 141.752 275.272 141.416C275.111 141.072 275.03 140.655 275.03 140.165C275.03 139.718 275.118 139.294 275.294 138.892C275.476 138.489 275.74 138.134 276.084 137.827C276.435 137.52 276.863 137.278 277.368 137.103C277.88 136.92 278.469 136.829 279.134 136.829C279.888 136.829 280.572 136.949 281.186 137.191C281.801 137.432 282.317 137.761 282.734 138.178L282.207 139.034ZM288.693 148.373C287.764 148.373 287.047 148.113 286.542 147.594C286.045 147.067 285.796 146.328 285.796 145.377V138.859H284.567C284.435 138.859 284.322 138.818 284.227 138.738C284.131 138.65 284.084 138.522 284.084 138.354V137.399L285.895 137.136L286.41 133.899C286.447 133.774 286.509 133.675 286.597 133.602C286.685 133.522 286.802 133.482 286.948 133.482H288.155V137.158H291.261V138.859H288.155V145.212C288.155 145.615 288.254 145.922 288.451 146.134C288.649 146.346 288.912 146.452 289.242 146.452C289.424 146.452 289.582 146.431 289.713 146.387C289.845 146.335 289.959 146.284 290.054 146.233C290.149 146.174 290.229 146.123 290.295 146.079C290.368 146.028 290.438 146.003 290.504 146.003C290.635 146.003 290.741 146.076 290.822 146.222L291.524 147.374C291.158 147.696 290.727 147.945 290.229 148.12C289.732 148.289 289.22 148.373 288.693 148.373ZM298.454 140.593H304.018V142.59H298.454V140.593ZM311.679 146.507C312.155 146.507 312.579 146.441 312.952 146.31C313.325 146.171 313.636 145.981 313.885 145.739C314.141 145.49 314.335 145.198 314.466 144.861C314.598 144.525 314.664 144.159 314.664 143.764C314.664 143.281 314.587 142.864 314.433 142.513C314.287 142.162 314.079 141.873 313.808 141.646C313.545 141.412 313.23 141.24 312.864 141.13C312.498 141.013 312.103 140.955 311.679 140.955C311.255 140.955 310.86 141.013 310.494 141.13C310.128 141.24 309.81 141.412 309.539 141.646C309.276 141.873 309.067 142.162 308.914 142.513C308.767 142.864 308.694 143.281 308.694 143.764C308.694 144.159 308.76 144.525 308.892 144.861C309.023 145.198 309.214 145.49 309.462 145.739C309.718 145.981 310.033 146.171 310.406 146.31C310.779 146.441 311.203 146.507 311.679 146.507ZM311.679 134.03C311.247 134.03 310.867 134.096 310.538 134.228C310.216 134.359 309.949 134.535 309.737 134.755C309.524 134.974 309.364 135.234 309.254 135.534C309.151 135.826 309.1 136.137 309.1 136.466C309.1 136.796 309.144 137.118 309.232 137.432C309.327 137.747 309.473 138.028 309.671 138.277C309.876 138.518 310.143 138.712 310.472 138.859C310.801 139.005 311.203 139.078 311.679 139.078C312.155 139.078 312.557 139.005 312.886 138.859C313.215 138.712 313.479 138.518 313.676 138.277C313.881 138.028 314.027 137.747 314.115 137.432C314.21 137.118 314.258 136.796 314.258 136.466C314.258 136.137 314.203 135.826 314.093 135.534C313.991 135.234 313.83 134.974 313.61 134.755C313.398 134.535 313.131 134.359 312.809 134.228C312.487 134.096 312.111 134.03 311.679 134.03ZM314.17 139.956C315.143 140.256 315.871 140.732 316.354 141.383C316.844 142.034 317.089 142.842 317.089 143.808C317.089 144.503 316.957 145.132 316.694 145.695C316.431 146.259 316.061 146.738 315.586 147.133C315.11 147.528 314.539 147.835 313.874 148.055C313.215 148.267 312.484 148.373 311.679 148.373C310.874 148.373 310.139 148.267 309.473 148.055C308.815 147.835 308.248 147.528 307.772 147.133C307.297 146.738 306.927 146.259 306.664 145.695C306.401 145.132 306.269 144.503 306.269 143.808C306.269 142.842 306.51 142.034 306.993 141.383C307.483 140.732 308.215 140.256 309.188 139.956C308.398 139.641 307.802 139.184 307.399 138.584C307.004 137.984 306.807 137.264 306.807 136.423C306.807 135.83 306.924 135.278 307.158 134.765C307.392 134.253 307.721 133.811 308.145 133.438C308.577 133.057 309.093 132.761 309.693 132.549C310.293 132.329 310.955 132.22 311.679 132.22C312.403 132.22 313.062 132.329 313.654 132.549C314.254 132.761 314.766 133.057 315.191 133.438C315.622 133.811 315.955 134.253 316.189 134.765C316.431 135.278 316.551 135.83 316.551 136.423C316.551 137.264 316.35 137.984 315.948 138.584C315.553 139.184 314.96 139.641 314.17 139.956ZM326.1 136.214C326.1 136.821 326.001 137.366 325.804 137.849C325.614 138.332 325.354 138.745 325.025 139.089C324.695 139.426 324.315 139.685 323.883 139.868C323.452 140.044 322.998 140.132 322.523 140.132C322.011 140.132 321.535 140.044 321.096 139.868C320.664 139.685 320.288 139.426 319.966 139.089C319.651 138.745 319.403 138.332 319.22 137.849C319.037 137.366 318.945 136.821 318.945 136.214C318.945 135.592 319.037 135.036 319.22 134.546C319.403 134.049 319.651 133.632 319.966 133.295C320.288 132.951 320.664 132.688 321.096 132.505C321.535 132.322 322.011 132.231 322.523 132.231C323.035 132.231 323.507 132.322 323.938 132.505C324.377 132.688 324.754 132.951 325.069 133.295C325.39 133.632 325.643 134.049 325.826 134.546C326.009 135.036 326.1 135.592 326.1 136.214ZM324.278 136.214C324.278 135.768 324.231 135.391 324.136 135.084C324.048 134.769 323.924 134.517 323.763 134.327C323.609 134.129 323.423 133.99 323.203 133.91C322.991 133.822 322.764 133.778 322.523 133.778C322.274 133.778 322.044 133.822 321.831 133.91C321.619 133.99 321.436 134.129 321.283 134.327C321.129 134.517 321.008 134.769 320.921 135.084C320.833 135.391 320.789 135.768 320.789 136.214C320.789 136.653 320.833 137.022 320.921 137.322C321.008 137.622 321.129 137.867 321.283 138.058C321.436 138.24 321.619 138.372 321.831 138.453C322.044 138.533 322.274 138.573 322.523 138.573C322.764 138.573 322.991 138.533 323.203 138.453C323.423 138.372 323.609 138.24 323.763 138.058C323.924 137.867 324.048 137.622 324.136 137.322C324.231 137.022 324.278 136.653 324.278 136.214ZM331.521 132.779C331.602 132.677 331.697 132.589 331.806 132.516C331.923 132.435 332.084 132.395 332.289 132.395H333.99L322.347 147.835C322.267 147.938 322.168 148.025 322.051 148.099C321.934 148.164 321.791 148.197 321.623 148.197H319.867L331.521 132.779ZM334.945 144.477C334.945 145.084 334.846 145.629 334.649 146.112C334.451 146.595 334.188 147.005 333.859 147.341C333.529 147.678 333.149 147.938 332.717 148.12C332.286 148.296 331.832 148.384 331.357 148.384C330.844 148.384 330.369 148.296 329.93 148.12C329.498 147.938 329.122 147.678 328.8 147.341C328.485 147.005 328.236 146.595 328.053 146.112C327.878 145.629 327.79 145.084 327.79 144.477C327.79 143.855 327.878 143.299 328.053 142.809C328.236 142.312 328.485 141.891 328.8 141.547C329.122 141.203 329.498 140.944 329.93 140.768C330.369 140.585 330.844 140.494 331.357 140.494C331.869 140.494 332.344 140.585 332.783 140.768C333.222 140.944 333.599 141.203 333.913 141.547C334.235 141.891 334.488 142.312 334.671 142.809C334.853 143.299 334.945 143.855 334.945 144.477ZM333.123 144.477C333.123 144.031 333.076 143.654 332.981 143.347C332.893 143.032 332.768 142.78 332.608 142.59C332.447 142.392 332.256 142.253 332.037 142.173C331.825 142.085 331.598 142.041 331.357 142.041C331.115 142.041 330.888 142.085 330.676 142.173C330.464 142.253 330.277 142.392 330.116 142.59C329.963 142.78 329.842 143.032 329.754 143.347C329.667 143.654 329.623 144.031 329.623 144.477C329.623 144.916 329.667 145.286 329.754 145.586C329.842 145.885 329.963 146.131 330.116 146.321C330.277 146.504 330.464 146.635 330.676 146.716C330.888 146.796 331.115 146.837 331.357 146.837C331.598 146.837 331.825 146.796 332.037 146.716C332.256 146.635 332.447 146.504 332.608 146.321C332.768 146.131 332.893 145.885 332.981 145.586C333.076 145.286 333.123 144.916 333.123 144.477Z" fill="#222222"/>
<path d="M248.751 243.271H243.824V256.934H241.267V243.271H236.329V241.131H248.751V243.271ZM252.678 247.068C253.139 246.615 253.644 246.253 254.192 245.982C254.741 245.704 255.381 245.565 256.113 245.565C256.727 245.565 257.265 245.667 257.726 245.872C258.194 246.077 258.586 246.366 258.9 246.739C259.222 247.112 259.464 247.562 259.624 248.089C259.785 248.608 259.866 249.183 259.866 249.812V256.934H257.518V249.812C257.518 249.058 257.342 248.473 256.991 248.056C256.647 247.639 256.12 247.43 255.411 247.43C254.884 247.43 254.394 247.551 253.94 247.793C253.494 248.034 253.073 248.363 252.678 248.78V256.934H250.319V240.693H252.678V247.068ZM265.079 245.74V256.934H262.72V245.74H265.079ZM265.474 242.361C265.474 242.573 265.431 242.774 265.343 242.964C265.262 243.154 265.149 243.323 265.003 243.469C264.856 243.608 264.684 243.721 264.487 243.809C264.297 243.89 264.092 243.93 263.872 243.93C263.66 243.93 263.459 243.89 263.269 243.809C263.086 243.721 262.925 243.608 262.786 243.469C262.647 243.323 262.534 243.154 262.446 242.964C262.365 242.774 262.325 242.573 262.325 242.361C262.325 242.141 262.365 241.936 262.446 241.746C262.534 241.556 262.647 241.391 262.786 241.252C262.925 241.106 263.086 240.992 263.269 240.912C263.459 240.824 263.66 240.78 263.872 240.78C264.092 240.78 264.297 240.824 264.487 240.912C264.684 240.992 264.856 241.106 265.003 241.252C265.149 241.391 265.262 241.556 265.343 241.746C265.431 241.936 265.474 242.141 265.474 242.361ZM272.038 251.238C272.77 251.238 273.319 251.052 273.684 250.679C274.05 250.305 274.233 249.819 274.233 249.219C274.233 248.605 274.05 248.118 273.684 247.76C273.319 247.401 272.77 247.222 272.038 247.222C271.314 247.222 270.765 247.401 270.392 247.76C270.026 248.118 269.844 248.605 269.844 249.219C269.844 249.512 269.891 249.782 269.986 250.031C270.081 250.28 270.22 250.496 270.403 250.679C270.586 250.854 270.813 250.993 271.084 251.096C271.362 251.191 271.68 251.238 272.038 251.238ZM275.319 257.482C275.319 257.234 275.246 257.036 275.1 256.89C274.961 256.736 274.771 256.619 274.529 256.539C274.288 256.451 274.006 256.389 273.684 256.352C273.362 256.308 273.019 256.279 272.653 256.264C272.294 256.242 271.925 256.224 271.544 256.209C271.171 256.187 270.809 256.151 270.458 256.1C270.107 256.282 269.818 256.502 269.591 256.758C269.372 257.014 269.262 257.31 269.262 257.647C269.262 257.866 269.317 258.071 269.427 258.261C269.544 258.452 269.719 258.616 269.953 258.755C270.195 258.894 270.498 259.004 270.864 259.084C271.237 259.165 271.683 259.205 272.203 259.205C273.242 259.205 274.021 259.044 274.54 258.722C275.06 258.4 275.319 257.987 275.319 257.482ZM277.69 246.146V247.024C277.69 247.317 277.514 247.496 277.163 247.562L276.044 247.749C276.234 248.173 276.329 248.645 276.329 249.164C276.329 249.713 276.219 250.21 276 250.657C275.788 251.103 275.491 251.483 275.111 251.798C274.73 252.112 274.277 252.354 273.75 252.522C273.223 252.69 272.653 252.775 272.038 252.775C271.804 252.775 271.574 252.764 271.347 252.742C271.127 252.712 270.912 252.676 270.699 252.632C270.487 252.756 270.33 252.888 270.228 253.027C270.125 253.166 270.074 253.309 270.074 253.455C270.074 253.696 270.18 253.876 270.392 253.993C270.604 254.11 270.882 254.194 271.226 254.245C271.577 254.296 271.976 254.329 272.422 254.344C272.869 254.358 273.322 254.384 273.783 254.421C274.244 254.457 274.698 254.519 275.144 254.607C275.59 254.688 275.985 254.827 276.329 255.024C276.68 255.214 276.962 255.474 277.174 255.803C277.386 256.133 277.492 256.56 277.492 257.087C277.492 257.57 277.371 258.042 277.13 258.503C276.889 258.964 276.537 259.373 276.077 259.732C275.623 260.09 275.067 260.376 274.409 260.588C273.75 260.807 273 260.917 272.159 260.917C271.325 260.917 270.597 260.837 269.975 260.676C269.361 260.515 268.845 260.295 268.428 260.017C268.018 259.747 267.711 259.432 267.506 259.073C267.309 258.715 267.21 258.342 267.21 257.954C267.21 257.427 267.374 256.977 267.704 256.604C268.04 256.231 268.494 255.939 269.064 255.726C268.757 255.58 268.508 255.379 268.318 255.123C268.135 254.867 268.044 254.53 268.044 254.113C268.044 253.784 268.165 253.44 268.406 253.082C268.647 252.723 269.01 252.42 269.492 252.171C268.936 251.864 268.497 251.458 268.176 250.953C267.854 250.441 267.693 249.845 267.693 249.164C267.693 248.608 267.799 248.107 268.011 247.661C268.23 247.215 268.534 246.834 268.922 246.52C269.309 246.205 269.767 245.964 270.293 245.795C270.828 245.627 271.409 245.543 272.038 245.543C273.004 245.543 273.845 245.744 274.562 246.146H277.69ZM281.913 247.068C282.374 246.615 282.878 246.253 283.427 245.982C283.976 245.704 284.616 245.565 285.347 245.565C285.962 245.565 286.5 245.667 286.961 245.872C287.429 246.077 287.82 246.366 288.135 246.739C288.457 247.112 288.698 247.562 288.859 248.089C289.02 248.608 289.1 249.183 289.1 249.812V256.934H286.752V249.812C286.752 249.058 286.577 248.473 286.225 248.056C285.882 247.639 285.355 247.43 284.645 247.43C284.118 247.43 283.628 247.551 283.175 247.793C282.728 248.034 282.308 248.363 281.913 248.78V256.934H279.553V240.693H281.913V247.068ZM298.539 247.771C298.48 247.873 298.414 247.946 298.341 247.99C298.268 248.034 298.177 248.056 298.067 248.056C297.943 248.056 297.807 248.019 297.661 247.946C297.515 247.866 297.343 247.778 297.145 247.683C296.948 247.588 296.714 247.504 296.443 247.43C296.18 247.35 295.869 247.31 295.51 247.31C295.217 247.31 294.95 247.346 294.709 247.419C294.475 247.485 294.274 247.584 294.105 247.716C293.945 247.84 293.82 247.99 293.732 248.166C293.645 248.334 293.601 248.517 293.601 248.714C293.601 248.978 293.681 249.197 293.842 249.373C294.003 249.548 294.215 249.702 294.479 249.834C294.742 249.958 295.042 250.071 295.378 250.174C295.715 250.276 296.059 250.386 296.41 250.503C296.761 250.62 297.105 250.755 297.441 250.909C297.778 251.063 298.078 251.253 298.341 251.48C298.605 251.699 298.817 251.97 298.978 252.292C299.139 252.606 299.219 252.99 299.219 253.444C299.219 253.971 299.124 254.457 298.934 254.903C298.744 255.35 298.466 255.737 298.1 256.067C297.734 256.396 297.277 256.652 296.728 256.835C296.187 257.018 295.565 257.109 294.863 257.109C294.475 257.109 294.098 257.073 293.732 256.999C293.374 256.934 293.03 256.842 292.701 256.725C292.379 256.601 292.075 256.454 291.79 256.286C291.512 256.118 291.263 255.935 291.044 255.737L291.593 254.838C291.658 254.728 291.739 254.644 291.834 254.585C291.936 254.519 292.061 254.486 292.207 254.486C292.361 254.486 292.511 254.538 292.657 254.64C292.811 254.735 292.986 254.841 293.184 254.958C293.389 255.075 293.634 255.185 293.919 255.288C294.204 255.383 294.559 255.43 294.983 255.43C295.335 255.43 295.638 255.39 295.894 255.309C296.15 255.222 296.362 255.105 296.531 254.958C296.699 254.812 296.823 254.647 296.904 254.465C296.984 254.274 297.024 254.073 297.024 253.861C297.024 253.576 296.944 253.342 296.783 253.159C296.622 252.976 296.406 252.818 296.136 252.687C295.872 252.555 295.569 252.438 295.225 252.336C294.888 252.233 294.544 252.123 294.193 252.006C293.842 251.889 293.495 251.754 293.151 251.6C292.814 251.447 292.511 251.253 292.24 251.019C291.977 250.777 291.764 250.488 291.603 250.152C291.443 249.808 291.362 249.391 291.362 248.901C291.362 248.455 291.45 248.03 291.625 247.628C291.808 247.226 292.072 246.871 292.416 246.563C292.767 246.256 293.195 246.015 293.699 245.839C294.212 245.656 294.8 245.565 295.466 245.565C296.22 245.565 296.904 245.686 297.518 245.927C298.133 246.168 298.649 246.498 299.066 246.915L298.539 247.771ZM306.77 249.329H312.334V251.326H306.77V249.329ZM324.428 254.706C324.684 254.706 324.886 254.783 325.032 254.936C325.178 255.083 325.251 255.273 325.251 255.507V256.934H314.563V256.133C314.563 255.972 314.596 255.803 314.662 255.628C314.728 255.452 314.834 255.291 314.98 255.145L319.896 250.218C320.313 249.801 320.683 249.402 321.005 249.022C321.334 248.641 321.612 248.261 321.839 247.88C322.073 247.5 322.248 247.116 322.365 246.728C322.49 246.333 322.552 245.92 322.552 245.488C322.552 245.071 322.486 244.705 322.354 244.391C322.23 244.069 322.054 243.805 321.828 243.601C321.608 243.388 321.341 243.231 321.027 243.129C320.719 243.019 320.379 242.964 320.006 242.964C319.647 242.964 319.315 243.015 319.007 243.118C318.707 243.22 318.437 243.363 318.195 243.546C317.961 243.729 317.764 243.948 317.603 244.204C317.449 244.453 317.336 244.727 317.263 245.027C317.153 245.327 317.01 245.528 316.835 245.631C316.666 245.733 316.418 245.755 316.088 245.697L314.848 245.477C314.958 244.731 315.163 244.076 315.463 243.513C315.77 242.949 316.154 242.481 316.615 242.108C317.076 241.728 317.603 241.442 318.195 241.252C318.795 241.055 319.443 240.956 320.138 240.956C320.84 240.956 321.484 241.062 322.069 241.274C322.662 241.479 323.17 241.775 323.594 242.163C324.026 242.543 324.363 243.008 324.604 243.557C324.845 244.105 324.966 244.724 324.966 245.411C324.966 245.996 324.878 246.538 324.703 247.035C324.534 247.533 324.304 248.008 324.011 248.462C323.719 248.915 323.375 249.358 322.98 249.79C322.592 250.214 322.182 250.646 321.751 251.085L317.932 254.991C318.247 254.903 318.561 254.834 318.876 254.783C319.198 254.732 319.501 254.706 319.786 254.706H324.428ZM338.487 249.033C338.487 250.415 338.337 251.611 338.037 252.621C337.745 253.631 337.339 254.468 336.819 255.134C336.3 255.8 335.689 256.293 334.987 256.615C334.284 256.937 333.527 257.098 332.715 257.098C331.903 257.098 331.146 256.937 330.444 256.615C329.741 256.293 329.13 255.8 328.611 255.134C328.099 254.468 327.697 253.631 327.404 252.621C327.111 251.611 326.965 250.415 326.965 249.033C326.965 247.65 327.111 246.454 327.404 245.444C327.697 244.427 328.099 243.59 328.611 242.931C329.13 242.265 329.741 241.772 330.444 241.45C331.146 241.121 331.903 240.956 332.715 240.956C333.527 240.956 334.284 241.121 334.987 241.45C335.689 241.772 336.3 242.265 336.819 242.931C337.339 243.59 337.745 244.427 338.037 245.444C338.337 246.454 338.487 247.65 338.487 249.033ZM336.051 249.033C336.051 247.862 335.956 246.889 335.766 246.114C335.583 245.331 335.338 244.705 335.031 244.237C334.723 243.769 334.369 243.436 333.966 243.238C333.564 243.041 333.147 242.942 332.715 242.942C332.276 242.942 331.856 243.041 331.453 243.238C331.058 243.436 330.707 243.769 330.4 244.237C330.092 244.705 329.847 245.331 329.665 246.114C329.482 246.889 329.39 247.862 329.39 249.033C329.39 250.203 329.482 251.18 329.665 251.963C329.847 252.738 330.092 253.36 330.4 253.828C330.707 254.296 331.058 254.629 331.453 254.827C331.856 255.024 332.276 255.123 332.715 255.123C333.147 255.123 333.564 255.024 333.966 254.827C334.369 254.629 334.723 254.296 335.031 253.828C335.338 253.36 335.583 252.738 335.766 251.963C335.956 251.18 336.051 250.203 336.051 249.033ZM347.147 244.95C347.147 245.558 347.049 246.103 346.851 246.585C346.661 247.068 346.401 247.482 346.072 247.825C345.743 248.162 345.362 248.422 344.931 248.605C344.499 248.78 344.045 248.868 343.57 248.868C343.058 248.868 342.582 248.78 342.143 248.605C341.712 248.422 341.335 248.162 341.013 247.825C340.698 247.482 340.45 247.068 340.267 246.585C340.084 246.103 339.992 245.558 339.992 244.95C339.992 244.328 340.084 243.772 340.267 243.282C340.45 242.785 340.698 242.368 341.013 242.031C341.335 241.687 341.712 241.424 342.143 241.241C342.582 241.058 343.058 240.967 343.57 240.967C344.082 240.967 344.554 241.058 344.985 241.241C345.424 241.424 345.801 241.687 346.116 242.031C346.438 242.368 346.69 242.785 346.873 243.282C347.056 243.772 347.147 244.328 347.147 244.95ZM345.326 244.95C345.326 244.504 345.278 244.127 345.183 243.82C345.095 243.505 344.971 243.253 344.81 243.063C344.656 242.865 344.47 242.726 344.25 242.646C344.038 242.558 343.811 242.514 343.57 242.514C343.321 242.514 343.091 242.558 342.879 242.646C342.666 242.726 342.483 242.865 342.33 243.063C342.176 243.253 342.056 243.505 341.968 243.82C341.88 244.127 341.836 244.504 341.836 244.95C341.836 245.389 341.88 245.759 341.968 246.059C342.056 246.359 342.176 246.604 342.33 246.794C342.483 246.977 342.666 247.108 342.879 247.189C343.091 247.269 343.321 247.31 343.57 247.31C343.811 247.31 344.038 247.269 344.25 247.189C344.47 247.108 344.656 246.977 344.81 246.794C344.971 246.604 345.095 246.359 345.183 246.059C345.278 245.759 345.326 245.389 345.326 244.95ZM352.568 241.516C352.649 241.413 352.744 241.325 352.854 241.252C352.971 241.172 353.132 241.131 353.336 241.131H355.037L343.394 256.571C343.314 256.674 343.215 256.762 343.098 256.835C342.981 256.901 342.838 256.934 342.67 256.934H340.914L352.568 241.516ZM355.992 253.214C355.992 253.821 355.893 254.366 355.696 254.849C355.498 255.331 355.235 255.741 354.906 256.078C354.576 256.414 354.196 256.674 353.764 256.857C353.333 257.032 352.879 257.12 352.404 257.12C351.892 257.12 351.416 257.032 350.977 256.857C350.545 256.674 350.169 256.414 349.847 256.078C349.532 255.741 349.284 255.331 349.101 254.849C348.925 254.366 348.837 253.821 348.837 253.214C348.837 252.592 348.925 252.036 349.101 251.546C349.284 251.048 349.532 250.627 349.847 250.284C350.169 249.94 350.545 249.68 350.977 249.504C351.416 249.322 351.892 249.23 352.404 249.23C352.916 249.23 353.391 249.322 353.83 249.504C354.269 249.68 354.646 249.94 354.961 250.284C355.282 250.627 355.535 251.048 355.718 251.546C355.901 252.036 355.992 252.592 355.992 253.214ZM354.17 253.214C354.17 252.767 354.123 252.39 354.028 252.083C353.94 251.769 353.816 251.516 353.655 251.326C353.494 251.129 353.304 250.99 353.084 250.909C352.872 250.821 352.645 250.777 352.404 250.777C352.162 250.777 351.935 250.821 351.723 250.909C351.511 250.99 351.325 251.129 351.164 251.326C351.01 251.516 350.889 251.769 350.802 252.083C350.714 252.39 350.67 252.767 350.67 253.214C350.67 253.652 350.714 254.022 350.802 254.322C350.889 254.622 351.01 254.867 351.164 255.057C351.325 255.24 351.511 255.372 351.723 255.452C351.935 255.533 352.162 255.573 352.404 255.573C352.645 255.573 352.872 255.533 353.084 255.452C353.304 255.372 353.494 255.24 353.655 255.057C353.816 254.867 353.94 254.622 354.028 254.322C354.123 254.022 354.17 253.652 354.17 253.214Z" fill="#222222"/>
<path d="M247.007 350.431V352.582H237.877V336.78H240.444V350.431H247.007ZM255.431 345.723C255.431 345.328 255.373 344.963 255.256 344.626C255.146 344.282 254.981 343.986 254.762 343.737C254.542 343.481 254.268 343.284 253.939 343.145C253.617 342.998 253.244 342.925 252.819 342.925C251.963 342.925 251.29 343.17 250.8 343.66C250.31 344.151 249.999 344.838 249.867 345.723H255.431ZM249.802 347.172C249.831 347.808 249.93 348.361 250.098 348.829C250.266 349.29 250.489 349.674 250.767 349.981C251.053 350.289 251.389 350.519 251.777 350.673C252.172 350.819 252.611 350.892 253.094 350.892C253.555 350.892 253.953 350.841 254.29 350.738C254.626 350.629 254.919 350.512 255.168 350.387C255.417 350.256 255.629 350.139 255.804 350.036C255.98 349.926 256.141 349.872 256.287 349.872C256.477 349.872 256.624 349.945 256.726 350.091L257.395 350.958C257.117 351.287 256.803 351.565 256.452 351.792C256.101 352.019 255.727 352.205 255.332 352.352C254.937 352.491 254.531 352.589 254.114 352.648C253.697 352.714 253.291 352.747 252.896 352.747C252.121 352.747 251.4 352.619 250.734 352.363C250.076 352.099 249.502 351.715 249.012 351.21C248.529 350.706 248.148 350.08 247.87 349.334C247.6 348.588 247.464 347.728 247.464 346.755C247.464 345.98 247.585 345.255 247.826 344.582C248.075 343.909 248.426 343.324 248.88 342.826C249.341 342.329 249.897 341.938 250.548 341.652C251.206 341.36 251.949 341.213 252.776 341.213C253.463 341.213 254.1 341.327 254.685 341.553C255.27 341.773 255.775 342.099 256.199 342.53C256.624 342.962 256.953 343.492 257.187 344.121C257.428 344.743 257.549 345.453 257.549 346.25C257.549 346.616 257.509 346.861 257.428 346.985C257.348 347.11 257.202 347.172 256.989 347.172H249.802ZM263.744 346.887C264.475 346.887 265.024 346.7 265.39 346.327C265.756 345.954 265.938 345.467 265.938 344.868C265.938 344.253 265.756 343.767 265.39 343.408C265.024 343.05 264.475 342.87 263.744 342.87C263.019 342.87 262.471 343.05 262.098 343.408C261.732 343.767 261.549 344.253 261.549 344.868C261.549 345.16 261.597 345.431 261.692 345.68C261.787 345.928 261.926 346.144 262.109 346.327C262.292 346.503 262.518 346.642 262.789 346.744C263.067 346.839 263.385 346.887 263.744 346.887ZM267.025 353.131C267.025 352.882 266.952 352.684 266.805 352.538C266.666 352.385 266.476 352.267 266.235 352.187C265.993 352.099 265.712 352.037 265.39 352C265.068 351.957 264.724 351.927 264.358 351.913C264 351.891 263.63 351.872 263.25 351.858C262.877 351.836 262.515 351.799 262.163 351.748C261.812 351.931 261.523 352.15 261.297 352.406C261.077 352.663 260.967 352.959 260.967 353.295C260.967 353.515 261.022 353.72 261.132 353.91C261.249 354.1 261.425 354.265 261.659 354.404C261.9 354.543 262.204 354.652 262.57 354.733C262.943 354.813 263.389 354.854 263.908 354.854C264.947 354.854 265.726 354.693 266.246 354.371C266.765 354.049 267.025 353.636 267.025 353.131ZM269.395 341.795V342.673C269.395 342.965 269.22 343.145 268.868 343.211L267.749 343.397C267.939 343.821 268.034 344.293 268.034 344.813C268.034 345.361 267.925 345.859 267.705 346.305C267.493 346.751 267.197 347.132 266.816 347.446C266.436 347.761 265.982 348.002 265.456 348.171C264.929 348.339 264.358 348.423 263.744 348.423C263.51 348.423 263.279 348.412 263.052 348.39C262.833 348.361 262.617 348.324 262.405 348.28C262.193 348.405 262.035 348.536 261.933 348.675C261.831 348.814 261.779 348.957 261.779 349.103C261.779 349.345 261.885 349.524 262.098 349.641C262.31 349.758 262.588 349.842 262.932 349.893C263.283 349.945 263.682 349.978 264.128 349.992C264.574 350.007 265.028 350.032 265.489 350.069C265.949 350.106 266.403 350.168 266.849 350.256C267.296 350.336 267.691 350.475 268.034 350.673C268.386 350.863 268.667 351.123 268.879 351.452C269.092 351.781 269.198 352.209 269.198 352.736C269.198 353.219 269.077 353.69 268.835 354.151C268.594 354.612 268.243 355.022 267.782 355.38C267.328 355.739 266.772 356.024 266.114 356.236C265.456 356.456 264.706 356.565 263.864 356.565C263.03 356.565 262.302 356.485 261.681 356.324C261.066 356.163 260.55 355.944 260.133 355.666C259.724 355.395 259.416 355.08 259.212 354.722C259.014 354.363 258.915 353.99 258.915 353.603C258.915 353.076 259.08 352.626 259.409 352.253C259.746 351.88 260.199 351.587 260.77 351.375C260.463 351.229 260.214 351.027 260.024 350.771C259.841 350.515 259.749 350.179 259.749 349.762C259.749 349.433 259.87 349.089 260.111 348.73C260.353 348.372 260.715 348.068 261.198 347.819C260.642 347.512 260.203 347.106 259.881 346.601C259.559 346.089 259.398 345.493 259.398 344.813C259.398 344.257 259.504 343.756 259.716 343.309C259.936 342.863 260.239 342.483 260.627 342.168C261.015 341.853 261.472 341.612 261.999 341.444C262.533 341.275 263.115 341.191 263.744 341.191C264.709 341.191 265.551 341.393 266.268 341.795H269.395ZM277.942 343.419C277.883 343.521 277.817 343.595 277.744 343.638C277.671 343.682 277.58 343.704 277.47 343.704C277.346 343.704 277.21 343.668 277.064 343.595C276.918 343.514 276.746 343.426 276.548 343.331C276.351 343.236 276.116 343.152 275.846 343.079C275.582 342.998 275.272 342.958 274.913 342.958C274.62 342.958 274.353 342.995 274.112 343.068C273.878 343.134 273.677 343.232 273.508 343.364C273.347 343.489 273.223 343.638 273.135 343.814C273.048 343.982 273.004 344.165 273.004 344.363C273.004 344.626 273.084 344.846 273.245 345.021C273.406 345.197 273.618 345.35 273.882 345.482C274.145 345.606 274.445 345.72 274.781 345.822C275.118 345.925 275.462 346.034 275.813 346.151C276.164 346.269 276.508 346.404 276.844 346.557C277.181 346.711 277.481 346.901 277.744 347.128C278.008 347.348 278.22 347.618 278.381 347.94C278.542 348.255 278.622 348.639 278.622 349.092C278.622 349.619 278.527 350.106 278.337 350.552C278.147 350.998 277.869 351.386 277.503 351.715C277.137 352.044 276.68 352.3 276.131 352.483C275.59 352.666 274.968 352.758 274.266 352.758C273.878 352.758 273.501 352.721 273.135 352.648C272.777 352.582 272.433 352.491 272.104 352.374C271.782 352.249 271.478 352.103 271.193 351.935C270.915 351.766 270.666 351.583 270.447 351.386L270.995 350.486C271.061 350.376 271.142 350.292 271.237 350.234C271.339 350.168 271.464 350.135 271.61 350.135C271.764 350.135 271.914 350.186 272.06 350.289C272.214 350.384 272.389 350.49 272.587 350.607C272.791 350.724 273.037 350.834 273.322 350.936C273.607 351.031 273.962 351.079 274.386 351.079C274.737 351.079 275.041 351.038 275.297 350.958C275.553 350.87 275.765 350.753 275.934 350.607C276.102 350.46 276.226 350.296 276.307 350.113C276.387 349.923 276.427 349.722 276.427 349.509C276.427 349.224 276.347 348.99 276.186 348.807C276.025 348.624 275.809 348.467 275.539 348.335C275.275 348.204 274.972 348.086 274.628 347.984C274.291 347.882 273.947 347.772 273.596 347.655C273.245 347.538 272.898 347.402 272.554 347.249C272.217 347.095 271.914 346.901 271.643 346.667C271.38 346.426 271.167 346.137 271.006 345.8C270.845 345.456 270.765 345.039 270.765 344.549C270.765 344.103 270.853 343.679 271.028 343.276C271.211 342.874 271.475 342.519 271.818 342.212C272.17 341.905 272.598 341.663 273.102 341.488C273.614 341.305 274.203 341.213 274.869 341.213C275.623 341.213 276.307 341.334 276.921 341.575C277.536 341.817 278.052 342.146 278.469 342.563L277.942 343.419ZM286.173 344.977H291.737V346.974H286.173V344.977ZM304.303 350.793V352.582H295.689V350.793H298.981V340.895C298.981 340.544 298.992 340.185 299.014 339.82L296.479 341.96C296.369 342.047 296.256 342.106 296.139 342.135C296.029 342.157 295.923 342.157 295.82 342.135C295.725 342.113 295.638 342.08 295.557 342.036C295.484 341.985 295.425 341.93 295.382 341.872L294.646 340.84L299.409 336.747H301.329V350.793H304.303ZM312.107 350.804C312.583 350.804 313.018 350.727 313.413 350.574C313.808 350.413 314.145 350.193 314.423 349.915C314.708 349.637 314.927 349.308 315.081 348.928C315.235 348.547 315.311 348.134 315.311 347.688C315.311 347.205 315.235 346.773 315.081 346.393C314.935 346.005 314.723 345.68 314.445 345.416C314.174 345.153 313.845 344.952 313.457 344.813C313.076 344.666 312.656 344.593 312.195 344.593C311.719 344.593 311.288 344.674 310.9 344.835C310.52 344.996 310.194 345.215 309.923 345.493C309.653 345.771 309.444 346.097 309.298 346.47C309.152 346.843 309.078 347.238 309.078 347.655C309.078 348.123 309.144 348.551 309.276 348.939C309.408 349.327 309.601 349.659 309.858 349.937C310.114 350.208 310.428 350.42 310.801 350.574C311.182 350.727 311.617 350.804 312.107 350.804ZM311.24 342.596C311.123 342.742 311.01 342.881 310.9 343.013C310.798 343.145 310.695 343.276 310.593 343.408C310.929 343.218 311.299 343.068 311.701 342.958C312.103 342.848 312.535 342.794 312.996 342.794C313.611 342.794 314.199 342.896 314.763 343.101C315.326 343.298 315.82 343.598 316.244 344.001C316.676 344.396 317.02 344.889 317.276 345.482C317.532 346.067 317.66 346.744 317.66 347.512C317.66 348.244 317.524 348.928 317.254 349.564C316.99 350.201 316.617 350.757 316.134 351.232C315.652 351.7 315.07 352.074 314.39 352.352C313.717 352.622 312.97 352.758 312.151 352.758C311.332 352.758 310.593 352.626 309.934 352.363C309.276 352.099 308.713 351.73 308.244 351.254C307.784 350.771 307.429 350.193 307.18 349.52C306.931 348.847 306.807 348.097 306.807 347.271C306.807 346.554 306.96 345.804 307.268 345.021C307.575 344.238 308.051 343.415 308.694 342.552L312.579 337.34C312.696 337.186 312.864 337.054 313.084 336.945C313.311 336.835 313.563 336.78 313.841 336.78H315.926L311.24 342.596ZM326.55 340.599C326.55 341.206 326.451 341.751 326.254 342.234C326.064 342.717 325.804 343.13 325.475 343.474C325.146 343.81 324.765 344.07 324.334 344.253C323.902 344.429 323.448 344.516 322.973 344.516C322.461 344.516 321.985 344.429 321.546 344.253C321.115 344.07 320.738 343.81 320.416 343.474C320.101 343.13 319.853 342.717 319.67 342.234C319.487 341.751 319.395 341.206 319.395 340.599C319.395 339.977 319.487 339.421 319.67 338.931C319.853 338.433 320.101 338.016 320.416 337.68C320.738 337.336 321.115 337.073 321.546 336.89C321.985 336.707 322.461 336.615 322.973 336.615C323.485 336.615 323.957 336.707 324.388 336.89C324.827 337.073 325.204 337.336 325.519 337.68C325.841 338.016 326.093 338.433 326.276 338.931C326.459 339.421 326.55 339.977 326.55 340.599ZM324.729 340.599C324.729 340.153 324.681 339.776 324.586 339.468C324.498 339.154 324.374 338.902 324.213 338.711C324.059 338.514 323.873 338.375 323.653 338.294C323.441 338.207 323.214 338.163 322.973 338.163C322.724 338.163 322.494 338.207 322.281 338.294C322.069 338.375 321.886 338.514 321.733 338.711C321.579 338.902 321.458 339.154 321.371 339.468C321.283 339.776 321.239 340.153 321.239 340.599C321.239 341.038 321.283 341.407 321.371 341.707C321.458 342.007 321.579 342.252 321.733 342.442C321.886 342.625 322.069 342.757 322.281 342.837C322.494 342.918 322.724 342.958 322.973 342.958C323.214 342.958 323.441 342.918 323.653 342.837C323.873 342.757 324.059 342.625 324.213 342.442C324.374 342.252 324.498 342.007 324.586 341.707C324.681 341.407 324.729 341.038 324.729 340.599ZM331.971 337.164C332.052 337.062 332.147 336.974 332.257 336.901C332.374 336.82 332.535 336.78 332.739 336.78H334.44L322.797 352.22C322.717 352.322 322.618 352.41 322.501 352.483C322.384 352.549 322.241 352.582 322.073 352.582H320.317L331.971 337.164ZM335.395 348.862C335.395 349.469 335.296 350.014 335.099 350.497C334.901 350.98 334.638 351.39 334.309 351.726C333.979 352.063 333.599 352.322 333.167 352.505C332.736 352.681 332.282 352.769 331.807 352.769C331.295 352.769 330.819 352.681 330.38 352.505C329.948 352.322 329.572 352.063 329.25 351.726C328.935 351.39 328.686 350.98 328.504 350.497C328.328 350.014 328.24 349.469 328.24 348.862C328.24 348.24 328.328 347.684 328.504 347.194C328.686 346.696 328.935 346.276 329.25 345.932C329.572 345.588 329.948 345.328 330.38 345.153C330.819 344.97 331.295 344.879 331.807 344.879C332.319 344.879 332.794 344.97 333.233 345.153C333.672 345.328 334.049 345.588 334.363 345.932C334.685 346.276 334.938 346.696 335.121 347.194C335.304 347.684 335.395 348.24 335.395 348.862ZM333.573 348.862C333.573 348.416 333.526 348.039 333.431 347.732C333.343 347.417 333.219 347.165 333.058 346.974C332.897 346.777 332.706 346.638 332.487 346.557C332.275 346.47 332.048 346.426 331.807 346.426C331.565 346.426 331.338 346.47 331.126 346.557C330.914 346.638 330.728 346.777 330.567 346.974C330.413 347.165 330.292 347.417 330.204 347.732C330.117 348.039 330.073 348.416 330.073 348.862C330.073 349.301 330.117 349.67 330.204 349.97C330.292 350.27 330.413 350.515 330.567 350.706C330.728 350.888 330.914 351.02 331.126 351.101C331.338 351.181 331.565 351.221 331.807 351.221C332.048 351.221 332.275 351.181 332.487 351.101C332.706 351.02 332.897 350.888 333.058 350.706C333.219 350.515 333.343 350.27 333.431 349.97C333.526 349.67 333.573 349.301 333.573 348.862Z" fill="#222222"/>
<line x1="220.844" y1="55.555" x2="161.86" y2="55.555" stroke="black" stroke-opacity="0.1" stroke-width="1.37171"/>
<line x1="220.844" y1="140.6" x2="161.86" y2="140.6" stroke="black" stroke-opacity="0.1" stroke-width="1.37171"/>
<line x1="220.844" y1="250.336" x2="161.86" y2="250.336" stroke="black" stroke-opacity="0.1" stroke-width="1.37171"/>
<line x1="220.844" y1="344.985" x2="161.86" y2="344.985" stroke="black" stroke-opacity="0.1" stroke-width="1.37171"/>
<g style="mix-blend-mode:multiply">
<path fill-rule="evenodd" clip-rule="evenodd" d="M181.407 139.248C180.644 137.038 179.643 135.262 178.504 133.841C177.048 122.651 171.225 103.671 164.503 91.5213C156.594 77.2298 146.733 72.6 139.443 71.6272L139.442 71.6253C139.314 71.5452 139.165 71.4668 138.997 71.3895C138.934 71.36 138.856 71.3324 138.788 71.3036C138.676 71.2559 138.568 71.2081 138.441 71.1623C138.331 71.1223 138.205 71.0832 138.086 71.043C137.983 71.0097 137.891 70.9752 137.781 70.9419C137.619 70.8923 137.44 70.8425 137.263 70.7938C137.183 70.7719 137.11 70.749 137.026 70.726C136.798 70.665 136.555 70.6049 136.306 70.5439C136.265 70.5342 136.228 70.5238 136.187 70.5141C132.89 69.719 127.906 68.918 123.03 67.5987C122.252 67.3878 121.476 67.1655 120.71 66.9258C122.575 65.302 124.091 63.326 125.277 61.2259C120.212 62.8564 117.657 56.7659 116.908 53.1919C115.428 46.1115 118.698 38.09 119.04 30.3578C119.699 15.4344 113.876 8.31776 110.06 5.29833C109.704 4.99573 109.339 4.70171 108.955 4.42487C105.283 1.44841 100.249 -0.178242 93.2938 0.0155431C93.2891 0.0155431 93.2843 0.0155431 93.2796 0.0155431C92.0878 -0.0169135 90.9372 0.0565912 89.8238 0.210283C83.9435 0.441297 79.523 1.97249 76.1827 4.52033C72.5149 6.99181 65.4172 13.9652 66.1404 30.3578C66.482 38.09 69.7546 46.1115 68.2729 53.1919C67.524 56.7659 64.9679 62.8564 59.9043 61.2259C61.0893 63.326 62.6055 65.302 64.4707 66.9258C63.7065 67.1655 62.9299 67.3878 62.1513 67.5987C57.2747 68.918 52.2913 69.7181 48.993 70.5141C48.9519 70.5238 48.9157 70.5342 48.8747 70.5439C48.6256 70.6049 48.3824 70.665 48.1543 70.726C48.0712 70.749 47.9988 70.7719 47.9176 70.7938C47.7412 70.8425 47.5627 70.8923 47.4005 70.9419C47.2917 70.9752 47.1972 71.0097 47.0943 71.043C46.975 71.0832 46.8499 71.1223 46.7394 71.1623C46.6133 71.2081 46.5056 71.2559 46.3921 71.3036C46.3243 71.3324 46.246 71.36 46.1831 71.3895C46.016 71.4668 45.8672 71.5452 45.7393 71.6253L45.7384 71.6272C38.4471 72.6 28.5862 77.2298 20.6775 91.5213C13.9547 103.671 8.13356 122.651 6.67661 133.841C5.53739 135.262 4.53557 137.038 3.77322 139.248C-1.75592 155.287 -0.741699 169.254 3.79993 186.481C4.43824 188.902 3.88389 191.359 4.1749 193.38C4.18158 193.421 4.20161 193.458 4.2102 193.497C4.20638 193.527 4.19207 193.554 4.18921 193.586C4.22642 200.093 4.11002 206.007 5.03362 210.623C7.46281 222.8 18.5659 230.758 20.2691 229.188C21.9712 227.613 20.6736 224.571 18.669 220.207C16.1444 214.714 17.4305 211.579 17.692 209.171C17.7502 208.635 18.4495 208.471 18.7387 208.926C19.3769 209.929 20.042 211.024 20.937 215.74C21.477 218.6 23.3537 218.153 23.4415 217.916C24.2096 215.858 24.1553 214.106 23.9683 211.141C23.2756 200.113 22.2927 198.459 18.7835 194.76C18.314 193.51 17.9133 192.606 17.4763 191.969C20.9608 171.354 24.5788 160.699 25.4996 147.07C25.5768 146.972 25.655 146.881 25.7315 146.776C29.816 141.132 33.3292 135.371 36.3718 129.816C39.2199 134.245 32.8339 139.248 32.8339 151.545V157.638V161.229C32.8339 161.913 31.1231 165.483 27.7102 175.412C27.506 176.003 27.319 176.585 27.1407 177.158C27.0768 177.365 27.0204 177.566 26.9604 177.768C26.8534 178.129 26.7456 178.489 26.6492 178.841C26.5796 179.093 26.5167 179.339 26.4528 179.586C26.3754 179.881 26.2981 180.176 26.2266 180.467C26.1598 180.739 26.0988 181.008 26.0377 181.276C25.9804 181.528 25.9232 181.779 25.8708 182.027C25.8096 182.318 25.7515 182.604 25.6961 182.888C25.6541 183.103 25.6141 183.315 25.5759 183.525C25.5187 183.833 25.4661 184.138 25.4156 184.441C25.388 184.61 25.3622 184.776 25.3374 184.942C25.2858 185.276 25.2352 185.606 25.1913 185.933C25.1771 186.044 25.1646 186.153 25.1504 186.262C24.7812 189.15 24.6858 191.776 24.7028 194.183C21.3854 225.296 40.0127 261.455 43.294 268.007C48.2391 277.881 51.383 285.731 51.7265 289.277C52.2942 295.114 48.2162 316.753 49.655 329.102C51.6588 346.301 62.5692 371.763 65.9898 386.491C66.7531 389.779 68.521 394.225 68.1546 397.196C67.4963 402.547 64.2179 406.448 63.6255 409.594C62.718 414.406 77.3743 416.318 80.5506 416.555C82.4779 416.697 86.8574 417.803 89.0919 415.882V407.276C88.3333 404.893 87.49 402.006 87.2199 398.925C86.6742 392.675 85.762 386.642 85.5941 383.551C84.8718 370.351 89.7511 342.906 90.5335 323.199C91.1424 307.882 88.3791 298.926 87.8725 290.84C87.4546 284.192 88.3791 279.393 89.5022 268.138C91.5001 248.089 92.4686 228.906 92.5907 214.322C92.7118 228.906 93.6812 248.089 95.6791 268.138C96.8013 279.393 97.7268 284.192 97.3089 290.84C96.8012 298.926 94.04 307.882 94.6478 323.199C95.4312 342.906 100.309 370.351 99.5863 383.551C99.4194 386.642 98.5062 392.675 97.9614 398.925C97.6914 402.006 96.848 404.893 96.0885 407.276V415.882C98.3231 417.803 102.703 416.697 104.631 416.555C107.807 416.318 122.462 414.406 121.556 409.594C120.963 406.448 117.684 402.547 117.026 397.196C116.66 394.225 118.427 389.779 119.191 386.491C122.611 371.763 133.522 346.301 135.526 329.102C136.965 316.753 132.886 295.114 133.454 289.277C133.799 285.731 136.942 277.881 141.886 268.007C145.169 261.455 163.794 225.296 160.478 194.183C160.495 191.776 160.399 189.15 160.031 186.262C160.016 186.153 160.004 186.044 159.99 185.933C159.945 185.606 159.895 185.276 159.843 184.942C159.819 184.776 159.792 184.61 159.765 184.441C159.716 184.138 159.661 183.833 159.604 183.525C159.566 183.315 159.527 183.103 159.484 182.888C159.43 182.604 159.37 182.318 159.31 182.027C159.257 181.779 159.201 181.528 159.143 181.276C159.083 181.008 159.02 180.739 158.953 180.467C158.882 180.176 158.807 179.881 158.729 179.586C158.664 179.339 158.601 179.093 158.532 178.841C158.435 178.489 158.328 178.129 158.221 177.768C158.161 177.566 158.104 177.365 158.039 177.158C157.862 176.585 157.674 176.003 157.471 175.412C154.057 165.483 152.347 161.913 152.347 161.229V157.638V151.545C152.347 139.248 145.961 134.245 148.809 129.816C151.851 135.371 155.364 141.132 159.449 146.776C159.525 146.881 159.604 146.972 159.682 147.07C160.602 160.699 164.219 171.354 167.705 191.969C167.267 192.606 166.866 193.51 166.399 194.76C162.888 198.459 161.905 200.113 161.212 211.141C161.027 214.106 160.972 215.858 161.739 217.916C161.828 218.153 163.703 218.6 164.243 215.74C165.138 211.024 165.803 209.929 166.441 208.926C166.732 208.471 167.432 208.635 167.49 209.171C167.751 211.579 169.036 214.714 166.512 220.207C164.507 224.571 163.21 227.613 164.912 229.188C166.615 230.758 177.718 222.8 180.147 210.623C181.071 206.007 180.954 200.093 180.992 193.586C180.989 193.554 180.975 193.527 180.97 193.497C180.979 193.458 181 193.421 181.006 193.38C181.297 191.359 180.742 188.902 181.382 186.481C185.923 169.254 186.937 155.287 181.407 139.248Z" fill="#F3F4F8"/>
</g>
<mask id="path-10-inside-1" fill="white">
<path fill-rule="evenodd" clip-rule="evenodd" d="M146.007 147.261C144.788 134.219 143.458 120.693 143.87 106.725C144.262 93.3422 140.759 83.8689 139.732 81.0223C137.662 75.2889 134.184 72.3431 130.78 71.9346C128.447 71.4076 125.172 70.9409 121.664 70.283C120.933 70.1332 119.404 69.782 117.951 69.4622C117.366 69.3342 116.798 69.212 116.302 69.1109C116.26 69.0994 116.218 69.088 116.176 69.0774C119.348 67.2694 121.723 64.3847 123.407 61.2307C118.618 62.8611 116.202 56.7717 115.493 53.1968C114.093 46.1167 117.187 38.0951 117.51 30.363C117.776 23.9777 116.918 19.0273 115.57 15.2098C114.184 10.6153 111.866 6.97262 108.289 4.4248C104.575 1.44839 99.4838 -0.17824 92.4503 0.0155428C85.4178 -0.17824 80.3267 1.44839 76.6126 4.4248C74.2842 6.08294 72.5241 8.52 71.1886 11.2559C68.9152 15.3893 67.1204 21.4958 67.49 30.363C67.8132 38.0951 70.9069 46.1167 69.5067 53.1968C68.7975 56.7717 66.3813 62.8611 61.5932 61.2307C63.277 64.3847 65.6518 67.2694 68.8235 69.0774C68.7811 69.088 68.7396 69.0994 68.6981 69.1109C68.2011 69.212 67.6338 69.3342 67.048 69.4622C65.5958 69.782 64.0673 70.1323 63.3359 70.283C59.8283 70.9409 56.5533 71.4076 54.22 71.9346C50.8157 72.344 47.34 75.2889 45.2702 81.0223C44.2415 83.8689 40.7388 93.3422 41.1305 106.725C41.5426 120.691 40.2119 134.214 38.9941 147.254C35.6583 157.712 34.4898 167.166 35.199 196.061C35.2588 198.564 35.1189 200.939 35.3457 202.967C35.3534 203.037 35.3679 203.1 35.3775 203.167C35.3688 203.366 35.3679 203.573 35.3775 203.784C36.3183 210.225 35.4576 214.42 37.0228 218.865C41.2473 230.881 56.0901 245.724 47.7877 226.692C44.7452 219.715 45.4979 216.899 45.165 213.951C57.1342 235.118 52.7803 217.732 44.834 202.558C44.1354 193.724 52.3702 166.798 53.1026 151.258C53.2348 150.795 53.3506 150.304 53.423 149.746C54.5375 141.292 57.1699 120.15 59.4635 105.851C60.4536 112.761 64.0828 116.106 64.8721 117.824C70.8413 168.852 59.4105 152.827 55.5015 186.219H55.5024C55.5015 186.223 55.5005 186.227 55.5005 186.231C55.5015 186.232 55.5024 186.232 55.5024 186.232C51.7449 218.298 65.1683 255.327 66.3456 267.187C67.2767 276.586 68.342 283.261 67.5923 290.558C66.8464 297.855 66.0213 306.177 66.1815 317.64C66.4227 334.953 74.8091 372.404 74.5997 387.521C74.5756 389.138 74.4338 395.511 74.0632 398.483C73.3974 403.833 72.8069 407.479 72.2076 410.625C71.2909 415.436 77.0459 416.313 80.2582 416.549C82.9021 416.741 90.119 418.726 90.2801 412.499C90.338 410.329 87.5426 404.995 87.0032 398.921C86.4522 392.669 85.5287 386.638 85.3599 383.546C84.6294 370.345 89.5622 342.901 90.3544 323.195C90.9691 307.878 88.1766 298.921 87.6632 290.836C87.2406 284.188 89.7591 279.437 89.3113 268.134C88.5017 247.865 90.3651 224.581 91.4863 208.057C91.4863 208.055 91.4863 208.048 91.4873 208.043C91.8221 208.07 92.1435 208.095 92.459 208.117V208.125C92.4706 208.123 92.486 208.123 92.4995 208.122C92.5121 208.123 92.5294 208.123 92.5401 208.125V208.117C92.8537 208.095 93.1769 208.07 93.5118 208.043C93.5137 208.048 93.5137 208.055 93.5137 208.057C94.634 224.581 96.4983 247.865 95.6887 268.134C95.238 279.437 97.7595 284.188 97.3368 290.836C96.8225 298.921 94.0299 307.878 94.6456 323.195C95.4359 342.901 100.368 370.345 99.6401 383.546C99.4713 386.638 98.5478 392.669 97.9968 398.921C97.4574 404.995 94.662 410.329 94.7199 412.499C94.881 418.726 102.1 416.741 104.744 416.549C107.954 416.313 113.709 415.436 112.792 410.625C112.193 407.479 111.604 403.833 110.937 398.483C110.566 395.511 110.424 389.138 110.4 387.521C110.188 372.404 118.577 334.953 118.818 317.64C118.979 306.177 118.153 297.855 117.408 290.558C116.658 283.261 117.723 276.586 118.654 267.187C119.863 255.017 133.279 218.513 129.498 186.232C129.499 186.232 129.499 186.232 129.5 186.231C129.5 186.227 129.499 186.223 129.498 186.219H129.499C125.851 154.974 114.249 168.07 120.127 117.824C120.84 116.274 124.565 112.638 125.536 105.852C127.83 120.151 130.462 141.292 131.576 149.746C131.65 150.305 131.765 150.796 131.897 151.259C132.674 167.699 137.385 177.393 139.986 198.431C140.213 200.264 140.245 201.547 140.165 202.558C138.787 205.192 136.353 205.846 134.372 215.481C133.777 218.391 133.126 221.205 132.747 223.767C132.708 224.015 134.621 224.713 135.558 221.953C137.83 215.296 138.529 216.26 139.835 213.951C139.501 216.899 140.255 219.715 137.211 226.692C135.288 231.1 132.873 233.575 134.364 235.367C135.853 237.157 143.855 230.593 147.977 218.865C149.542 214.42 148.682 210.225 149.623 203.784C149.632 203.573 149.631 203.366 149.623 203.167C149.632 203.1 149.647 203.037 149.654 202.967C149.881 200.939 149.739 198.564 149.801 196.061C150.51 167.174 149.341 157.717 146.007 147.261Z"/>
</mask>
<path d="M143.87 106.725L146.868 106.813L146.868 106.813L143.87 106.725ZM139.732 81.0223L142.554 80.0045L142.554 80.0036L139.732 81.0223ZM130.78 71.9346L130.119 74.8609L130.27 74.8949L130.423 74.9132L130.78 71.9346ZM121.664 70.283L121.062 73.222L121.087 73.227L121.111 73.2316L121.664 70.283ZM117.951 69.4622L118.596 66.5323L118.592 66.5315L117.951 69.4622ZM116.302 69.1109L115.498 72.0013L115.6 72.0294L115.703 72.0504L116.302 69.1109ZM116.176 69.0774L114.691 66.4711L108.24 70.1484L115.435 71.9843L116.176 69.0774ZM123.407 61.2307L126.053 62.6436L129.631 55.9428L122.44 58.3908L123.407 61.2307ZM115.493 53.1968L112.55 53.7788L112.55 53.7799L115.493 53.1968ZM117.51 30.363L120.507 30.4883L120.507 30.488L117.51 30.363ZM115.57 15.2098L112.697 16.076L112.717 16.1429L112.741 16.2087L115.57 15.2098ZM108.289 4.4248L106.413 6.76583L106.479 6.819L106.549 6.86834L108.289 4.4248ZM92.4503 0.0155428L92.3677 3.0144L92.4503 3.01668L92.5329 3.0144L92.4503 0.0155428ZM76.6126 4.4248L78.3528 6.86849L78.4222 6.81909L78.4887 6.76583L76.6126 4.4248ZM71.1886 11.2559L73.8173 12.7017L73.8525 12.6376L73.8846 12.5719L71.1886 11.2559ZM67.49 30.363L64.4926 30.4879L64.4926 30.4883L67.49 30.363ZM69.5067 53.1968L72.4494 53.7806L72.4497 53.7788L69.5067 53.1968ZM61.5932 61.2307L62.5602 58.3909L55.3689 55.9422L58.9467 62.6436L61.5932 61.2307ZM68.8235 69.0774L69.5494 71.9883L76.8113 70.1775L70.3092 66.4711L68.8235 69.0774ZM68.6981 69.1109L69.2963 72.0506L69.3999 72.0296L69.5016 72.0013L68.6981 69.1109ZM67.048 69.4622L66.4076 66.5313L66.4028 66.5324L67.048 69.4622ZM63.3359 70.283L63.8889 73.2316L63.9152 73.2267L63.9414 73.2213L63.3359 70.283ZM54.22 71.9346L54.5782 74.9131L54.7309 74.8948L54.8809 74.8609L54.22 71.9346ZM45.2702 81.0223L48.0916 82.0418L48.0919 82.041L45.2702 81.0223ZM41.1305 106.725L38.1318 106.812L38.1318 106.813L41.1305 106.725ZM38.9941 147.254L41.8523 148.166L41.951 147.856L41.9812 147.533L38.9941 147.254ZM35.199 196.061L38.1981 195.989L38.1981 195.987L35.199 196.061ZM35.3457 202.967L38.3273 202.636L38.3271 202.634L35.3457 202.967ZM35.3775 203.167L38.3747 203.297L38.387 203.015L38.3463 202.735L35.3775 203.167ZM35.3775 203.784L32.3806 203.921L32.3874 204.07L32.409 204.218L35.3775 203.784ZM37.0228 218.865L39.8529 217.87L39.8525 217.869L37.0228 218.865ZM47.7877 226.692L45.0379 227.891L45.038 227.891L47.7877 226.692ZM45.165 213.951L47.7764 212.474L42.1839 214.288L45.165 213.951ZM44.834 202.558L41.8434 202.795L41.8917 203.406L42.1764 203.95L44.834 202.558ZM53.1026 151.258L50.2179 150.435L50.1223 150.769L50.1059 151.117L53.1026 151.258ZM53.423 149.746L50.4487 149.354L50.4479 149.36L53.423 149.746ZM59.4635 105.851L62.4332 105.426L56.5014 105.376L59.4635 105.851ZM64.8721 117.824L67.8518 117.475L67.7966 117.003L67.5982 116.571L64.8721 117.824ZM55.5015 186.219L52.5218 185.871L52.1298 189.219H55.5015V186.219ZM55.5024 186.219L58.3717 187.096L59.5552 183.219H55.5024V186.219ZM55.5005 186.231H52.5005V187.074L52.9402 187.794L55.5005 186.231ZM55.5024 186.232L58.482 186.581L58.8702 183.269L55.5353 183.232L55.5024 186.232ZM66.3456 267.187L69.3309 266.892L69.3309 266.891L66.3456 267.187ZM67.5923 290.558L64.608 290.251L64.6078 290.253L67.5923 290.558ZM66.1815 317.64L69.1812 317.598V317.598L66.1815 317.64ZM74.5997 387.521L77.5994 387.566L77.5994 387.563L74.5997 387.521ZM74.0632 398.483L71.0863 398.112L71.0862 398.112L74.0632 398.483ZM72.2076 410.625L75.1546 411.186L75.1546 411.186L72.2076 410.625ZM80.2582 416.549L80.0389 419.541L80.04 419.541L80.2582 416.549ZM90.2801 412.499L87.2812 412.419L87.2811 412.421L90.2801 412.499ZM87.0032 398.921L84.0148 399.184L84.0149 399.186L87.0032 398.921ZM85.3599 383.546L88.3554 383.382L88.3553 383.38L85.3599 383.546ZM90.3544 323.195L93.352 323.316L93.352 323.316L90.3544 323.195ZM87.6632 290.836L90.6572 290.646L90.6572 290.645L87.6632 290.836ZM89.3113 268.134L92.309 268.015L92.3089 268.014L89.3113 268.134ZM91.4863 208.057L94.4794 208.26L94.4863 208.159V208.057H91.4863ZM91.4873 208.043L91.7272 205.052L89.0778 204.84L88.5476 207.444L91.4873 208.043ZM92.459 208.117H95.459V205.32L92.6688 205.124L92.459 208.117ZM92.459 208.125H89.459V211.562L92.8646 211.097L92.459 208.125ZM92.4995 208.122L92.8745 205.145L92.5129 205.1L92.151 205.142L92.4995 208.122ZM92.5401 208.125L92.0983 211.092L95.5401 211.605V208.125H92.5401ZM92.5401 208.117L92.329 205.125L89.5401 205.321V208.117H92.5401ZM93.5118 208.043L96.2903 206.912L95.4619 204.877L93.2719 205.052L93.5118 208.043ZM93.5137 208.057H90.5137V208.159L90.5206 208.26L93.5137 208.057ZM95.6887 268.134L92.6911 268.014L92.6911 268.014L95.6887 268.134ZM97.3368 290.836L100.331 291.026L100.331 291.026L97.3368 290.836ZM94.6456 323.195L97.6432 323.075L97.6431 323.075L94.6456 323.195ZM99.6401 383.546L96.6447 383.381L96.6446 383.382L99.6401 383.546ZM97.9968 398.921L100.985 399.186L100.985 399.184L97.9968 398.921ZM94.7199 412.499L97.7189 412.421L97.7188 412.419L94.7199 412.499ZM104.744 416.549L104.962 419.541L104.963 419.541L104.744 416.549ZM112.792 410.625L109.845 411.186L109.845 411.186L112.792 410.625ZM110.937 398.483L113.914 398.112L113.914 398.112L110.937 398.483ZM110.4 387.521L107.401 387.564L107.401 387.566L110.4 387.521ZM118.818 317.64L115.819 317.598L115.819 317.598L118.818 317.64ZM117.408 290.558L120.392 290.253L120.392 290.251L117.408 290.558ZM118.654 267.187L115.669 266.891L115.669 266.892L118.654 267.187ZM129.498 186.232V183.232H126.126L126.518 186.581L129.498 186.232ZM129.5 186.231L132.06 187.794L132.5 187.074V186.231H129.5ZM129.498 186.219V183.219H125.445L126.628 187.096L129.498 186.219ZM129.499 186.219V189.219H132.869L132.478 185.872L129.499 186.219ZM120.127 117.824L117.402 116.569L117.203 117.002L117.147 117.475L120.127 117.824ZM125.536 105.852L128.499 105.377L122.567 105.427L125.536 105.852ZM131.576 149.746L128.602 150.138L128.602 150.142L131.576 149.746ZM131.897 151.259L134.894 151.118L134.878 150.77L134.782 150.436L131.897 151.259ZM139.986 198.431L137.008 198.799L137.008 198.801L139.986 198.431ZM140.165 202.558L142.823 203.949L143.107 203.406L143.156 202.795L140.165 202.558ZM134.372 215.481L131.433 214.876L131.432 214.88L134.372 215.481ZM132.747 223.767L135.711 224.228L135.713 224.217L135.714 224.206L132.747 223.767ZM135.558 221.953L132.719 220.984L132.718 220.989L135.558 221.953ZM139.835 213.951L142.816 214.288L137.224 212.473L139.835 213.951ZM137.211 226.692L134.462 225.492L134.462 225.492L137.211 226.692ZM134.364 235.367L136.67 233.448L136.67 233.448L134.364 235.367ZM147.977 218.865L145.148 217.869L145.147 217.87L147.977 218.865ZM149.623 203.784L152.591 204.218L152.613 204.07L152.619 203.921L149.623 203.784ZM149.623 203.167L146.654 202.735L146.613 203.015L146.625 203.297L149.623 203.167ZM149.654 202.967L146.673 202.634L146.673 202.636L149.654 202.967ZM149.801 196.061L152.8 196.135L152.8 196.134L149.801 196.061ZM148.994 146.982C147.771 133.9 146.463 120.564 146.868 106.813L140.871 106.636C140.452 120.823 141.805 134.538 143.02 147.541L148.994 146.982ZM146.868 106.813C147.278 92.861 143.621 82.9618 142.554 80.0045L136.91 82.0402C137.897 84.776 141.247 93.8234 140.871 106.637L146.868 106.813ZM142.554 80.0036C140.266 73.6672 136.085 69.5496 131.137 68.956L130.423 74.9132C132.284 75.1365 135.058 76.9107 136.91 82.041L142.554 80.0036ZM131.441 69.0083C129.063 68.4713 125.499 67.9499 122.217 67.3344L121.111 73.2316C124.845 73.9319 127.83 74.3439 130.119 74.8609L131.441 69.0083ZM122.266 67.344C121.56 67.1995 120.107 66.8649 118.596 66.5323L117.306 72.3921C118.701 72.6991 120.305 73.067 121.062 73.222L122.266 67.344ZM118.592 66.5315C118.003 66.4025 117.418 66.2768 116.901 66.1714L115.703 72.0504C116.178 72.1473 116.73 72.2659 117.31 72.3928L118.592 66.5315ZM117.105 66.2205C117.046 66.204 116.983 66.187 116.918 66.1705L115.435 71.9843C115.453 71.9889 115.475 71.9947 115.498 72.0013L117.105 66.2205ZM117.662 71.6837C121.465 69.516 124.19 66.1337 126.053 62.6436L120.76 59.8178C119.256 62.6357 117.232 65.0228 114.691 66.4711L117.662 71.6837ZM122.44 58.3908C121.916 58.5691 121.642 58.5003 121.449 58.4163C121.18 58.2987 120.791 58.0096 120.341 57.3947C119.412 56.1245 118.748 54.1865 118.436 52.6138L112.55 53.7799C112.947 55.782 113.845 58.6762 115.498 60.9368C116.34 62.0874 117.497 63.2383 119.05 63.9157C120.679 64.6266 122.503 64.7076 124.374 64.0707L122.44 58.3908ZM118.436 52.6148C117.85 49.6486 118.182 46.3399 118.815 42.5146C119.42 38.8632 120.336 34.5985 120.507 30.4883L114.513 30.2377C114.361 33.8597 113.569 37.4718 112.896 41.5342C112.252 45.4228 111.737 49.6649 112.55 53.7788L118.436 52.6148ZM120.507 30.488C120.788 23.7648 119.888 18.4282 118.398 14.2109L112.741 16.2087C113.948 19.6263 114.765 24.1906 114.513 30.238L120.507 30.488ZM118.442 14.3435C116.909 9.26293 114.264 4.99712 110.029 1.98127L106.549 6.86834C109.469 8.94812 111.458 11.9677 112.697 16.076L118.442 14.3435ZM110.165 2.08378C105.761 -1.44533 99.9164 -3.1913 92.3677 -2.98332L92.5329 3.0144C99.0513 2.83482 103.389 4.34211 106.413 6.76583L110.165 2.08378ZM92.5329 -2.98332C84.9851 -3.1913 79.1403 -1.4453 74.7365 2.08378L78.4887 6.76583C81.5131 4.34208 85.8504 2.83482 92.3677 3.0144L92.5329 -2.98332ZM74.8724 1.98111C72.0022 4.02505 69.9619 6.93003 68.4927 9.93987L73.8846 12.5719C75.0863 10.11 76.5662 8.14083 78.3528 6.86849L74.8724 1.98111ZM68.56 9.81009C65.9913 14.4804 64.1031 21.1419 64.4926 30.4879L70.4874 30.2381C70.1378 21.8496 71.8391 16.2982 73.8173 12.7017L68.56 9.81009ZM64.4926 30.4883C64.6644 34.5985 65.5802 38.8632 66.1849 42.5146C66.8185 46.3399 67.1503 49.6486 66.5637 52.6148L72.4497 53.7788C73.2633 49.6649 72.7484 45.4228 72.1043 41.5342C71.4315 37.4718 70.6388 33.8597 70.4874 30.2377L64.4926 30.4883ZM66.5641 52.613C66.252 54.1862 65.5872 56.1243 64.6581 57.3947C64.2083 58.0097 63.8196 58.2988 63.5501 58.4163C63.3577 58.5003 63.0835 58.5691 62.5602 58.3909L60.6262 64.0706C62.4969 64.7076 64.3202 64.6266 65.9497 63.9156C67.5021 63.2383 68.6595 62.0873 69.501 60.9368C71.1542 58.6764 72.0522 55.7824 72.4494 53.7806L66.5641 52.613ZM58.9467 62.6436C60.81 66.1337 63.5351 69.516 67.3379 71.6837L70.3092 66.4711C67.7684 65.0228 65.744 62.6357 64.2396 59.8178L58.9467 62.6436ZM68.0977 66.1665C68.0138 66.1874 67.9398 66.2079 67.8946 66.2205L69.5016 72.0013C69.5197 71.9963 69.5308 71.9932 69.5393 71.9909C69.5474 71.9888 69.5501 71.9881 69.5494 71.9883L68.0977 66.1665ZM68.0999 66.1712C67.581 66.2767 66.9965 66.4026 66.4076 66.5313L67.6885 72.393C68.2711 72.2657 68.8213 72.1473 69.2963 72.0506L68.0999 66.1712ZM66.4028 66.5324C64.8971 66.864 63.4381 67.1989 62.7303 67.3448L63.9414 73.2213C64.6965 73.0657 66.2944 72.7 67.6932 72.392L66.4028 66.5324ZM62.7829 67.3344C59.5014 67.9499 55.9366 68.4713 53.5591 69.0083L54.8809 74.8609C57.1699 74.3439 60.1551 73.9319 63.8889 73.2316L62.7829 67.3344ZM53.8618 68.9561C48.9146 69.551 44.7359 73.6673 42.4484 80.0036L48.0919 82.041C49.9441 76.9106 52.7169 75.137 54.5782 74.9131L53.8618 68.9561ZM42.4487 80.0028C41.3793 82.9622 37.7234 92.861 38.1318 106.812L44.1293 106.637C43.7541 93.8233 47.1037 84.7757 48.0916 82.0418L42.4487 80.0028ZM38.1318 106.813C38.5375 120.562 37.2287 133.895 36.0071 146.975L41.9812 147.533C43.1952 134.533 44.5477 120.821 44.1292 106.636L38.1318 106.813ZM36.136 146.342C32.6403 157.302 31.4891 167.177 32.1999 196.134L38.1981 195.987C37.4904 167.156 38.6764 158.123 41.8523 148.166L36.136 146.342ZM32.1999 196.132C32.2505 198.251 32.1208 201.122 32.3642 203.301L38.3271 202.634C38.117 200.755 38.2672 198.877 38.1981 195.989L32.1999 196.132ZM32.364 203.298C32.379 203.433 32.3986 203.545 32.4066 203.59C32.4086 203.601 32.4108 203.614 32.4118 203.619C32.413 203.626 32.4135 203.629 32.4137 203.63C32.4141 203.632 32.4118 203.619 32.4087 203.598L38.3463 202.735C38.3384 202.681 38.3307 202.635 38.3254 202.605C38.3228 202.589 38.3204 202.576 38.3187 202.566C38.3167 202.555 38.3161 202.552 38.3152 202.546C38.3136 202.538 38.315 202.545 38.3172 202.559C38.3195 202.574 38.3235 202.601 38.3273 202.636L32.364 203.298ZM32.3804 203.036C32.3682 203.315 32.3665 203.612 32.3806 203.921L38.3744 203.648C38.3692 203.533 38.3695 203.416 38.3747 203.297L32.3804 203.036ZM32.409 204.218C32.8505 207.24 32.8664 209.687 32.9685 212.195C33.0685 214.652 33.253 217.192 34.1931 219.862L39.8525 217.869C39.2274 216.094 39.0597 214.313 38.9635 211.951C38.8695 209.64 38.8454 206.769 38.346 203.351L32.409 204.218ZM34.1926 219.86C36.4686 226.334 41.5181 233.484 45.1143 236.668C45.9686 237.424 47.0993 238.288 48.331 238.635C48.9869 238.82 50.0653 238.966 51.1708 238.409C52.3479 237.816 52.8871 236.77 53.1027 235.954C53.4698 234.566 53.1638 232.941 52.776 231.522C52.3423 229.935 51.6045 227.938 50.5375 225.492L45.038 227.891C46.0466 230.203 46.661 231.906 46.9882 233.103C47.3613 234.469 47.2248 234.713 47.3019 234.421C47.3725 234.154 47.6518 233.464 48.4707 233.051C49.2179 232.675 49.8397 232.827 49.957 232.86C50.1116 232.903 49.8376 232.836 49.0914 232.175C46.2856 229.691 41.8015 223.412 39.8529 217.87L34.1926 219.86ZM50.5376 225.492C47.7355 219.067 48.5401 217.105 48.1461 213.614L42.1839 214.288C42.4557 216.694 41.755 220.363 45.0379 227.891L50.5376 225.492ZM42.5536 215.428C44.0702 218.11 45.3501 220.22 46.4148 221.822C47.4495 223.379 48.3772 224.603 49.1979 225.394C49.5668 225.75 50.185 226.291 51.0024 226.576C51.4526 226.734 52.1322 226.873 52.9154 226.692C53.7547 226.497 54.3939 226.009 54.812 225.454C55.5026 224.537 55.5559 223.5 55.5666 223.086C55.5811 222.526 55.517 221.942 55.4288 221.401C54.7641 217.317 51.5059 208.832 47.4917 201.166L42.1764 203.95C46.1085 211.459 49.0003 219.254 49.5068 222.365C49.565 222.723 49.5695 222.896 49.5686 222.931C49.5639 223.113 49.5178 222.51 50.0187 221.845C50.342 221.416 50.8639 221.008 51.5624 220.846C52.205 220.697 52.7205 220.821 52.9825 220.913C53.4236 221.067 53.5691 221.274 53.3625 221.075C53.0324 220.757 52.3986 219.985 51.4115 218.5C50.4544 217.061 49.2521 215.084 47.7764 212.474L42.5536 215.428ZM47.8247 202.322C47.683 200.53 47.9978 197.529 48.6854 193.506C49.3588 189.566 50.3321 184.947 51.3671 180.042C53.4104 170.356 55.7191 159.467 56.0993 151.4L50.1059 151.117C49.7537 158.59 47.5788 168.933 45.4963 178.803C44.4683 183.676 43.4681 188.417 42.7711 192.495C42.0882 196.491 41.6357 200.169 41.8434 202.795L47.8247 202.322ZM55.9873 152.082C56.1478 151.52 56.3013 150.877 56.398 150.132L50.4479 149.36C50.3999 149.73 50.3218 150.071 50.2179 150.435L55.9873 152.082ZM56.3972 150.138C57.5175 141.64 60.1408 120.57 62.4257 106.326L56.5014 105.376C54.1989 119.73 51.5574 140.944 50.4487 149.354L56.3972 150.138ZM56.4939 106.277C57.0559 110.2 58.376 113.134 59.6593 115.309C60.2918 116.381 60.9133 117.264 61.3799 117.927C61.6223 118.271 61.8012 118.525 61.9452 118.745C62.0143 118.85 62.0639 118.93 62.0994 118.991C62.1355 119.053 62.1474 119.079 62.146 119.076L67.5982 116.571C67.2578 115.83 66.6796 115.032 66.2865 114.473C65.8197 113.81 65.3241 113.103 64.8268 112.26C63.8507 110.606 62.8612 108.413 62.4332 105.426L56.4939 106.277ZM61.8924 118.172C64.8658 143.591 63.4136 151.71 61.103 157.528C58.6612 163.675 54.5372 168.654 52.5218 185.871L58.4811 186.568C60.3747 170.392 63.9206 166.688 66.6792 159.742C69.5689 152.467 70.8475 143.085 67.8518 117.475L61.8924 118.172ZM55.5015 189.219H55.5024V183.219H55.5015V189.219ZM52.6332 185.343C52.5892 185.488 52.5005 185.811 52.5005 186.231H58.5005C58.5005 186.373 58.4902 186.489 58.4818 186.564C58.4729 186.643 58.4619 186.712 58.4519 186.766C58.433 186.869 58.4072 186.979 58.3717 187.096L52.6332 185.343ZM52.9402 187.794C53.1788 188.185 53.5418 188.576 54.0498 188.857C54.2951 188.993 54.5466 189.087 54.793 189.147C54.915 189.177 55.0333 189.197 55.1467 189.211C55.2033 189.218 55.2586 189.223 55.3125 189.226C55.3394 189.228 55.366 189.229 55.3921 189.23C55.4052 189.231 55.4182 189.231 55.4311 189.231C55.4376 189.231 55.444 189.232 55.4504 189.232C55.4536 189.232 55.4568 189.232 55.46 189.232C55.4616 189.232 55.4639 189.232 55.4647 189.232C55.4671 189.232 55.4695 189.232 55.5024 186.232C55.5353 183.232 55.5377 183.232 55.5401 183.232C55.5409 183.232 55.5433 183.232 55.5449 183.232C55.5481 183.232 55.5513 183.233 55.5545 183.233C55.5609 183.233 55.5673 183.233 55.5737 183.233C55.5866 183.233 55.5996 183.234 55.6127 183.234C55.6389 183.235 55.6654 183.236 55.6923 183.238C55.7462 183.242 55.8015 183.247 55.8581 183.253C55.9714 183.267 56.0896 183.288 56.2115 183.317C56.4577 183.377 56.7089 183.471 56.9539 183.607C57.4611 183.887 57.8232 184.278 58.0608 184.667L52.9402 187.794ZM52.5228 185.883C50.5874 202.399 53.0825 220.05 56.135 234.891C57.6645 242.328 59.3499 249.129 60.7105 254.75C62.0953 260.471 63.0913 264.774 63.3602 267.484L69.3309 266.891C69.0112 263.671 67.8878 258.898 66.5421 253.338C65.172 247.678 63.5157 240.994 62.012 233.682C58.9978 219.028 56.6599 202.131 58.482 186.581L52.5228 185.883ZM63.3602 267.483C64.3148 277.118 65.3175 283.346 64.608 290.251L70.5766 290.864C71.3666 283.175 70.2387 276.054 69.3309 266.892L63.3602 267.483ZM64.6078 290.253C63.8592 297.576 63.0191 306.039 63.1818 317.682L69.1812 317.598C69.0236 306.315 69.8335 298.133 70.5767 290.863L64.6078 290.253ZM63.1818 317.682C63.3061 326.605 65.5118 340.558 67.5957 353.868C69.7177 367.422 71.7003 380.243 71.6 387.48L77.5994 387.563C77.7086 379.683 75.6027 366.22 73.5235 352.94C71.4062 339.417 69.2981 325.988 69.1812 317.598L63.1818 317.682ZM71.6001 387.477C71.5752 389.139 71.4324 395.335 71.0863 398.112L77.0402 398.854C77.4351 395.686 77.576 389.136 77.5994 387.566L71.6001 387.477ZM71.0862 398.112C70.4271 403.408 69.8461 406.989 69.2606 410.063L75.1546 411.186C75.7676 407.968 76.3677 404.258 77.0403 398.853L71.0862 398.112ZM69.2606 410.063C68.9114 411.896 69.1677 413.623 70.0595 415.099C70.9122 416.51 72.1767 417.412 73.3588 417.994C75.6468 419.121 78.3992 419.42 80.0389 419.541L80.4775 413.557C78.9048 413.441 77.1736 413.185 76.0103 412.611C75.4666 412.344 75.2635 412.109 75.1946 411.995C75.1648 411.946 75.0455 411.759 75.1546 411.186L69.2606 410.063ZM80.04 419.541C80.6879 419.588 81.2142 419.703 82.5881 419.855C83.7109 419.979 85.1363 420.08 86.5571 419.91C87.9667 419.741 89.673 419.27 91.0578 417.986C92.5172 416.632 93.2229 414.751 93.2791 412.576L87.2811 412.421C87.2568 413.36 87 413.566 86.9783 413.586C86.882 413.675 86.5886 413.863 85.8434 413.952C85.1093 414.04 84.2246 413.999 83.2456 413.891C82.5177 413.811 81.1504 413.606 80.4763 413.557L80.04 419.541ZM93.2791 412.579C93.3075 411.515 93.0075 410.365 92.7485 409.477C92.4714 408.526 92.077 407.362 91.722 406.257C90.9753 403.931 90.2301 401.343 89.9914 398.655L84.0149 399.186C84.3157 402.572 85.2379 405.688 86.0093 408.091C86.4134 409.349 86.7406 410.306 86.9882 411.155C87.1072 411.563 87.1869 411.879 87.2346 412.121C87.2852 412.378 87.2802 412.457 87.2812 412.419L93.2791 412.579ZM89.9916 398.657C89.7113 395.477 89.337 392.361 89.0169 389.691C88.6905 386.97 88.4332 384.807 88.3554 383.382L82.3643 383.709C82.4554 385.377 82.7442 387.776 83.0596 390.406C83.3811 393.088 83.7441 396.113 84.0148 399.184L89.9916 398.657ZM88.3553 383.38C88.0071 377.088 89.016 367.212 90.2672 356.147C91.5014 345.232 92.9504 333.306 93.352 323.316L87.3569 323.075C86.9663 332.791 85.5528 344.44 84.3051 355.473C83.0744 366.357 81.9822 376.803 82.3644 383.712L88.3553 383.38ZM93.352 323.316C93.6682 315.437 93.1066 309.189 92.4058 303.909C91.6868 298.492 90.9058 294.562 90.6572 290.646L84.6692 291.026C84.9339 295.195 85.806 299.786 86.4579 304.698C87.128 309.747 87.6554 315.636 87.3569 323.075L93.352 323.316ZM90.6572 290.645C90.471 287.717 90.923 285.237 91.4627 281.681C91.9972 278.159 92.5435 273.936 92.309 268.015L86.3137 268.253C86.5269 273.635 86.0378 277.438 85.5306 280.78C85.0287 284.087 84.4328 287.307 84.6692 291.026L90.6572 290.645ZM92.3089 268.014C91.5074 247.947 93.3531 224.858 94.4794 208.26L88.4932 207.854C87.377 224.303 85.4961 247.784 86.3137 268.254L92.3089 268.014ZM94.4863 208.057C94.4863 208.057 94.4863 208.059 94.4863 208.061C94.4863 208.064 94.4863 208.067 94.4863 208.071C94.4863 208.078 94.4862 208.087 94.486 208.098C94.4857 208.118 94.4851 208.147 94.4836 208.181C94.4822 208.214 94.4794 208.266 94.4734 208.33C94.4682 208.385 94.456 208.499 94.427 208.641L88.5476 207.444C88.5181 207.589 88.5056 207.706 88.5001 207.764C88.4938 207.83 88.4908 207.885 88.4893 207.921C88.4877 207.958 88.487 207.99 88.4867 208.012C88.4865 208.023 88.4864 208.033 88.4864 208.042C88.4863 208.046 88.4863 208.049 88.4863 208.052C88.4863 208.055 88.4863 208.057 88.4863 208.057H94.4863ZM91.2474 211.033C91.5838 211.06 91.9177 211.086 92.2492 211.11L92.6688 205.124C92.3692 205.103 92.0605 205.079 91.7272 205.052L91.2474 211.033ZM89.459 208.117V208.125H95.459V208.117H89.459ZM92.8646 211.097C92.8226 211.103 92.7868 211.107 92.7595 211.11C92.732 211.113 92.7092 211.114 92.6931 211.116C92.6769 211.117 92.6643 211.118 92.6574 211.118C92.6538 211.118 92.651 211.118 92.6495 211.119C92.6481 211.119 92.6471 211.119 92.6477 211.119C92.6478 211.119 92.6479 211.119 92.6482 211.119C92.6484 211.119 92.6487 211.119 92.649 211.119C92.6497 211.118 92.6507 211.118 92.6518 211.118C92.654 211.118 92.6575 211.118 92.6616 211.118C92.6697 211.117 92.6827 211.117 92.6986 211.115C92.7145 211.114 92.7354 211.113 92.7598 211.111C92.7841 211.108 92.814 211.105 92.848 211.101L92.151 205.142C92.2103 205.135 92.2568 205.132 92.2797 205.13C92.292 205.129 92.3015 205.129 92.306 205.128C92.3097 205.128 92.3133 205.128 92.3094 205.128C92.3075 205.128 92.2992 205.129 92.2893 205.129C92.279 205.13 92.263 205.131 92.2436 205.132C92.2242 205.134 92.1981 205.136 92.1676 205.139C92.1371 205.142 92.0983 205.146 92.0534 205.153L92.8646 211.097ZM92.1246 211.098C92.1678 211.104 92.2047 211.107 92.2326 211.11C92.2608 211.113 92.2847 211.114 92.302 211.116C92.3193 211.117 92.3335 211.118 92.3421 211.118C92.3465 211.118 92.3502 211.119 92.3526 211.119C92.3538 211.119 92.3548 211.119 92.3555 211.119C92.3559 211.119 92.3562 211.119 92.3565 211.119C92.3567 211.119 92.3569 211.119 92.357 211.119C92.3589 211.119 92.3537 211.119 92.347 211.118C92.3399 211.118 92.326 211.117 92.3083 211.116C92.2908 211.114 92.2643 211.112 92.2318 211.109C92.2153 211.107 92.1958 211.105 92.174 211.103C92.1523 211.1 92.1268 211.097 92.0983 211.092L92.9818 205.158C92.9235 205.149 92.8745 205.143 92.8397 205.14C92.8042 205.136 92.7745 205.134 92.7537 205.132C92.7327 205.131 92.7154 205.13 92.7048 205.129C92.6945 205.128 92.6858 205.128 92.684 205.128C92.68 205.128 92.684 205.128 92.688 205.128C92.6929 205.128 92.7035 205.129 92.7173 205.13C92.7311 205.131 92.7514 205.132 92.7762 205.135C92.8008 205.137 92.8344 205.14 92.8745 205.145L92.1246 211.098ZM95.5401 208.125V208.117H89.5401V208.125H95.5401ZM92.7511 211.11C93.0794 211.086 93.414 211.06 93.7517 211.033L93.2719 205.052C92.9398 205.079 92.628 205.103 92.329 205.125L92.7511 211.11ZM90.7332 209.174C90.6323 208.926 90.5866 208.717 90.5653 208.605C90.5417 208.481 90.5305 208.378 90.5247 208.311C90.5186 208.241 90.5161 208.182 90.5149 208.141C90.5143 208.119 90.514 208.101 90.5138 208.085C90.5137 208.078 90.5137 208.071 90.5137 208.066C90.5137 208.061 90.5137 208.057 90.5137 208.057H96.5137C96.5137 208.057 96.5137 208.053 96.5137 208.048C96.5137 208.042 96.5136 208.035 96.5135 208.027C96.5134 208.011 96.5131 207.991 96.5124 207.969C96.5112 207.925 96.5085 207.864 96.5022 207.791C96.4961 207.722 96.4846 207.616 96.4605 207.489C96.4386 207.373 96.3922 207.162 96.2903 206.912L90.7332 209.174ZM90.5206 208.26C91.6459 224.858 93.4926 247.947 92.6911 268.014L98.6863 268.254C99.5039 247.784 97.622 224.303 96.5068 207.854L90.5206 208.26ZM92.6911 268.014C92.455 273.935 93.0014 278.159 93.5363 281.681C94.0764 285.238 94.529 287.718 94.3429 290.645L100.331 291.026C100.567 287.306 99.9704 284.087 99.4682 280.78C98.9607 277.438 98.4717 273.635 98.6863 268.253L92.6911 268.014ZM94.3429 290.645C94.0937 294.562 93.3126 298.492 92.5935 303.909C91.8927 309.189 91.3313 315.438 91.648 323.316L97.6431 323.075C97.3442 315.636 97.8713 309.747 98.5414 304.698C99.1933 299.787 100.066 295.195 100.331 291.026L94.3429 290.645ZM91.648 323.316C92.0486 333.306 93.4969 345.232 94.731 356.147C95.982 367.212 96.9915 377.088 96.6447 383.381L102.636 383.711C103.016 376.803 101.924 366.357 100.693 355.473C99.4456 344.44 98.0328 332.791 97.6432 323.075L91.648 323.316ZM96.6446 383.382C96.5668 384.807 96.3095 386.97 95.9831 389.691C95.663 392.361 95.2887 395.477 95.0084 398.657L100.985 399.184C101.256 396.113 101.619 393.088 101.94 390.406C102.256 387.776 102.545 385.377 102.636 383.709L96.6446 383.382ZM95.0086 398.655C94.7699 401.343 94.0247 403.931 93.278 406.257C92.923 407.362 92.5286 408.526 92.2515 409.477C91.9926 410.365 91.6926 411.515 91.7209 412.579L97.7188 412.419C97.7198 412.457 97.7148 412.378 97.7654 412.121C97.8131 411.879 97.8928 411.563 98.0118 411.155C98.2594 410.306 98.5867 409.349 98.9907 408.091C99.7622 405.688 100.684 402.572 100.985 399.186L95.0086 398.655ZM91.7209 412.576C91.7771 414.751 92.4831 416.633 93.9428 417.986C95.3278 419.27 97.0343 419.741 98.444 419.91C99.865 420.08 101.29 419.979 102.413 419.855C103.788 419.703 104.314 419.588 104.962 419.541L104.526 413.557C103.852 413.606 102.484 413.811 101.756 413.891C100.777 413.999 99.8919 414.04 99.1575 413.952C98.4119 413.863 98.1183 413.675 98.0218 413.586C98 413.565 97.7432 413.36 97.7189 412.421L91.7209 412.576ZM104.963 419.541C106.602 419.42 109.354 419.121 111.642 417.994C112.824 417.411 114.088 416.51 114.941 415.099C115.832 413.623 116.089 411.896 115.739 410.063L109.845 411.186C109.955 411.759 109.835 411.946 109.805 411.995C109.736 412.109 109.533 412.344 108.99 412.612C107.827 413.185 106.096 413.441 104.524 413.557L104.963 419.541ZM115.739 410.063C115.154 406.99 114.574 403.409 113.914 398.112L107.96 398.854C108.633 404.258 109.232 407.968 109.845 411.186L115.739 410.063ZM113.914 398.112C113.568 395.335 113.425 389.139 113.4 387.477L107.401 387.566C107.424 389.136 107.565 395.686 107.96 398.854L113.914 398.112ZM113.4 387.479C113.298 380.243 115.281 367.422 117.403 353.868C119.487 340.559 121.694 326.605 121.818 317.682L115.819 317.598C115.702 325.988 113.593 339.417 111.475 352.94C109.396 366.22 107.29 379.683 107.401 387.564L113.4 387.479ZM121.818 317.682C121.981 306.039 121.14 297.576 120.392 290.253L114.423 290.862C115.166 298.134 115.976 306.315 115.819 317.598L121.818 317.682ZM120.392 290.251C119.683 283.346 120.685 277.118 121.64 267.483L115.669 266.892C114.761 276.054 113.633 283.175 114.423 290.864L120.392 290.251ZM121.64 267.484C121.916 264.696 122.918 260.365 124.306 254.651C125.669 249.034 127.356 242.262 128.885 234.858C131.938 220.078 134.424 202.505 132.477 185.883L126.518 186.581C128.352 202.239 126.021 219.06 123.009 233.644C121.506 240.923 119.849 247.576 118.475 253.236C117.125 258.798 115.996 263.593 115.669 266.891L121.64 267.484ZM129.498 189.232C129.498 189.232 129.501 189.232 129.505 189.232C129.509 189.232 129.516 189.232 129.524 189.232C129.539 189.232 129.569 189.232 129.605 189.23C129.672 189.228 129.819 189.221 130.003 189.189C130.468 189.11 130.971 188.91 131.419 188.537C131.759 188.253 131.952 187.959 131.987 187.908C132.034 187.838 132.077 187.766 132.06 187.794L126.939 184.667C126.921 184.696 126.964 184.625 127.011 184.555C127.045 184.504 127.238 184.21 127.578 183.927C128.026 183.554 128.528 183.354 128.993 183.275C129.177 183.244 129.324 183.236 129.39 183.234C129.427 183.233 129.456 183.232 129.472 183.232C129.48 183.232 129.486 183.232 129.49 183.232C129.494 183.232 129.497 183.232 129.498 183.232V189.232ZM132.5 186.231C132.5 185.813 132.412 185.49 132.367 185.343L126.628 187.096C126.593 186.978 126.567 186.867 126.548 186.765C126.538 186.71 126.527 186.642 126.518 186.562C126.51 186.488 126.5 186.372 126.5 186.231H132.5ZM129.498 189.219H129.499V183.219H129.498V189.219ZM132.478 185.872C130.597 169.757 126.486 164.516 124.046 158.083C121.685 151.859 120.184 143.159 123.107 118.172L117.147 117.475C114.193 142.735 115.553 152.61 118.436 160.211C121.239 167.603 124.752 171.436 126.519 186.567L132.478 185.872ZM122.852 119.078C122.843 119.097 122.877 119.024 123.029 118.794C123.173 118.576 123.351 118.322 123.595 117.973C124.065 117.301 124.688 116.404 125.324 115.317C126.609 113.122 127.952 110.147 128.506 106.277L122.567 105.427C122.149 108.343 121.144 110.58 120.146 112.287C119.64 113.15 119.137 113.878 118.677 114.535C118.303 115.072 117.723 115.872 117.402 116.569L122.852 119.078ZM122.574 106.327C124.859 120.571 127.481 141.64 128.602 150.138L134.55 149.354C133.442 140.944 130.801 119.731 128.499 105.377L122.574 106.327ZM128.602 150.142C128.7 150.879 128.851 151.517 129.013 152.083L134.782 150.436C134.679 150.076 134.6 149.731 134.55 149.351L128.602 150.142ZM128.901 151.401C129.302 159.896 130.725 166.643 132.331 173.779C133.935 180.908 135.729 188.45 137.008 198.799L142.963 198.063C141.642 187.374 139.78 179.55 138.184 172.462C136.591 165.382 135.269 159.061 134.894 151.118L128.901 151.401ZM137.008 198.801C137.22 200.505 137.234 201.574 137.174 202.321L143.156 202.795C143.257 201.52 143.206 200.023 142.963 198.061L137.008 198.801ZM137.507 201.168C137.303 201.558 137.051 201.898 136.589 202.492C136.144 203.065 135.546 203.822 134.929 204.839C133.672 206.913 132.47 209.835 131.433 214.876L137.31 216.085C138.254 211.492 139.26 209.27 140.06 207.949C140.472 207.27 140.865 206.767 141.325 206.176C141.769 205.605 142.338 204.876 142.823 203.949L137.507 201.168ZM131.432 214.88C130.861 217.678 130.174 220.658 129.779 223.327L135.714 224.206C136.077 221.752 136.693 219.105 137.311 216.081L131.432 214.88ZM129.782 223.306C129.622 224.334 130.018 225.113 130.27 225.489C130.534 225.883 130.835 226.137 131.03 226.282C131.431 226.58 131.844 226.749 132.167 226.847C132.845 227.053 133.648 227.103 134.476 226.908C136.329 226.47 137.693 224.998 138.399 222.917L132.718 220.989C132.487 221.668 132.426 221.227 133.097 221.068C133.334 221.012 133.608 221.014 133.909 221.105C134.043 221.146 134.305 221.241 134.606 221.464C134.751 221.572 135.013 221.789 135.253 222.146C135.481 222.486 135.866 223.231 135.711 224.228L129.782 223.306ZM138.398 222.922C140.619 216.412 140.455 218.946 142.446 215.429L137.224 212.473C136.602 213.573 135.041 214.179 132.719 220.984L138.398 222.922ZM136.854 213.613C136.459 217.106 137.265 219.067 134.462 225.492L139.961 227.891C143.245 220.364 142.544 216.693 142.816 214.288L136.854 213.613ZM134.462 225.492C134.03 226.481 133.565 227.377 133.104 228.233C132.668 229.042 132.168 229.938 131.794 230.73C131.427 231.509 131.013 232.52 130.92 233.622C130.814 234.878 131.13 236.171 132.058 237.285L136.67 233.448C136.852 233.667 136.911 233.978 136.899 234.128C136.897 234.15 136.899 234.095 136.951 233.939C137.002 233.783 137.087 233.574 137.22 233.291C137.505 232.689 137.875 232.028 138.387 231.077C138.873 230.173 139.431 229.107 139.961 227.891L134.462 225.492ZM132.057 237.285C133.066 238.498 134.464 238.726 135.458 238.642C136.398 238.563 137.261 238.209 137.953 237.839C139.371 237.082 140.896 235.812 142.372 234.237C145.363 231.045 148.61 226.111 150.808 219.86L145.147 217.87C143.222 223.347 140.407 227.559 137.994 230.134C136.769 231.441 135.756 232.21 135.126 232.546C134.794 232.724 134.755 232.68 134.956 232.663C135.211 232.642 136.034 232.683 136.67 233.448L132.057 237.285ZM150.807 219.862C151.747 217.192 151.932 214.652 152.032 212.195C152.134 209.687 152.15 207.24 152.591 204.218L146.654 203.351C146.155 206.769 146.131 209.64 146.037 211.951C145.94 214.313 145.773 216.094 145.148 217.869L150.807 219.862ZM152.619 203.921C152.634 203.612 152.632 203.315 152.62 203.036L146.625 203.297C146.631 203.416 146.631 203.533 146.626 203.648L152.619 203.921ZM152.591 203.598C152.588 203.619 152.586 203.632 152.586 203.63C152.587 203.629 152.587 203.626 152.588 203.619C152.589 203.614 152.591 203.601 152.593 203.59C152.601 203.545 152.621 203.433 152.636 203.298L146.673 202.636C146.677 202.601 146.681 202.574 146.683 202.559C146.685 202.545 146.687 202.537 146.685 202.546C146.684 202.551 146.683 202.555 146.681 202.566C146.68 202.575 146.677 202.589 146.675 202.604C146.669 202.635 146.662 202.681 146.654 202.735L152.591 203.598ZM152.636 203.301C152.769 202.11 152.789 200.869 152.79 199.693C152.79 198.466 152.77 197.339 152.8 196.135L146.802 195.987C146.77 197.286 146.79 198.597 146.79 199.69C146.789 200.835 146.767 201.796 146.673 202.634L152.636 203.301ZM152.8 196.134C153.511 167.184 152.359 157.307 148.865 146.35L143.149 148.173C146.323 158.127 147.51 167.164 146.802 195.987L152.8 196.134Z" fill="#027BFF" mask="url(#path-10-inside-1)"/>
</svg>
