<svg width="68" height="68" viewBox="0 0 68 68" fill="none" xmlns="http://www.w3.org/2000/svg">
<path d="M33.9232 0C30.7267 0 28.1368 2.58537 28.1368 5.78103C28.1368 8.96913 30.7267 11.5545 33.9232 11.5545C37.106 11.5545 39.6913 8.96913 39.6913 5.78103C39.6921 2.58537 37.106 0 33.9232 0Z" fill="#027BFF"/>
<path d="M43.4757 17.5575C42.0595 14.6617 39.8638 12.9004 34.471 12.9004H33.9174H33.3645C27.9725 12.9004 25.7761 14.6625 24.3599 17.5575C23.6507 19.0054 22.1597 37.1167 22.1597 37.1167C22.0449 38.1884 22.8191 39.1446 23.8863 39.2511C23.9573 39.2602 24.0238 39.2602 24.094 39.2602C25.0767 39.2602 25.9218 38.5207 26.02 37.5245L27.5427 21.7857L27.9196 34.0048L26.8086 65.5777C26.7293 66.8224 27.6673 67.9115 28.9113 67.9908C28.977 67.9999 29.0261 67.9999 29.0707 67.9999C30.2572 67.9999 31.2573 67.0883 31.3464 65.8926L33.9182 39.8878L36.4907 65.8926C36.5791 67.0883 37.5798 67.9999 38.7664 67.9999C38.8102 67.9999 38.8593 67.9999 38.9258 67.9908C40.1697 67.9115 41.1078 66.8216 41.0285 65.5777L39.9159 34.0041L40.2928 21.7849L41.8155 37.5238C41.9137 38.52 42.7589 39.2594 43.7415 39.2594C43.8125 39.2594 43.879 39.2594 43.9492 39.2504C45.0165 39.1446 45.7914 38.1884 45.6758 37.1159C45.6758 37.1167 44.1841 19.0054 43.4757 17.5575Z" fill="#027BFF"/>
<path d="M52.335 15.9182C57.4521 19.0081 61.2928 24.1788 62.5549 30.5286C64.3064 39.3406 60.5231 47.9525 53.6235 52.8151L50.9868 47.1625L46.7662 58.9164L58.4272 63.1113L55.6583 57.1754C64.4854 51.3672 69.3888 40.608 67.2014 29.6056C65.61 21.6003 60.6009 15.1455 53.9928 11.4559" fill="url(#paint0_linear)"/>
<path d="M15.4642 56.9454C10.3085 53.8631 6.42705 48.6961 5.1642 42.3395C3.41191 33.5267 7.19594 24.9156 14.0956 20.053L16.7315 25.7049L20.9521 13.951L9.29188 9.75687L12.0608 15.692C3.23366 21.5002 -1.66896 32.2601 0.518378 43.2625C2.12187 51.3306 7.19745 57.8246 13.8833 61.4991" fill="#027BFF"/>
<defs>
<linearGradient id="paint0_linear" x1="43.5005" y1="41.5008" x2="86.0006" y2="118.001" gradientUnits="userSpaceOnUse">
<stop stop-color="#027BFF"/>
<stop offset="1" stop-color="#027BFF" stop-opacity="0"/>
</linearGradient>
</defs>
</svg>
